<?xml version="1.0" encoding="UTF-8"?>
<svg xmlns="http://www.w3.org/2000/svg" xmlns:xlink="http://www.w3.org/1999/xlink" width="230pt" height="53pt" viewBox="0 0 230 53" version="1.1">
<g id="surface1">
<path style=" stroke:none;fill-rule:nonzero;fill:rgb(0%,54.902649%,22.744751%);fill-opacity:1;" d="M 8.984375 19.785156 L 8.957031 20.773438 L 8.972656 20.585938 L 8.746094 22.328125 L 8.757812 22.242188 L 8.515625 23.617188 L 8.527344 23.574219 L 8.21875 25.121094 L 8.226562 25.085938 L 7.75 27.277344 L 7.753906 27.257812 L 7.210938 29.621094 L 7.214844 29.605469 L 6.578125 32.273438 L 6.582031 32.265625 L 5.929688 34.964844 L 5.929688 34.96875 L 5.320312 37.519531 L 5.320312 37.527344 L 4.746094 39.972656 L 4.742188 39.988281 L 4.285156 42.007812 L 4.28125 42.023438 L 3.886719 43.8125 L 3.882812 43.835938 L 3.492188 45.710938 L 3.488281 45.730469 L 3.363281 46.375 C 3.152344 47.433594 3.84375 48.457031 4.898438 48.664062 C 5.953125 48.871094 6.980469 48.183594 7.1875 47.128906 C 7.203125 47.039062 7.214844 46.953125 7.21875 46.863281 L 7.242188 46.496094 L 7.230469 46.617188 L 7.460938 44.695312 L 7.457031 44.730469 L 7.714844 42.882812 L 7.714844 42.902344 L 8.027344 40.796875 L 8.027344 40.808594 L 8.441406 38.125 L 8.441406 38.128906 L 8.890625 35.28125 L 8.890625 35.292969 L 9.230469 33.195312 L 9.230469 33.203125 L 9.589844 31.054688 L 9.589844 31.058594 L 9.949219 28.949219 L 9.949219 28.941406 L 10.277344 26.980469 L 10.277344 26.976562 L 10.59375 25.042969 L 10.597656 25.027344 L 10.882812 23.171875 L 10.886719 23.144531 L 11.207031 20.832031 L 11.210938 20.800781 L 11.472656 18.640625 L 11.476562 18.609375 L 11.660156 16.875 L 11.664062 16.832031 L 11.792969 15.261719 L 11.796875 15.175781 L 11.871094 13.164062 L 11.871094 13.15625 L 11.910156 12.015625 L 11.90625 12.082031 L 11.9375 11.617188 C 12.011719 10.558594 11.210938 9.644531 10.15625 9.570312 C 9.394531 9.519531 8.675781 9.921875 8.320312 10.597656 L 8.300781 10.632812 C 8.15625 10.914062 8.082031 11.222656 8.082031 11.535156 L 8.082031 12.410156 L 8.164062 14.113281 L 8.171875 14.214844 L 8.4375 16.792969 L 8.445312 16.882812 L 8.671875 18.390625 L 8.6875 18.484375 L 8.992188 19.996094 L 9.019531 20.117188 L 9.398438 21.539062 L 9.453125 21.710938 L 9.945312 23.042969 L 10.125 23.402344 L 11.390625 25.417969 C 11.527344 25.636719 11.707031 25.828125 11.917969 25.976562 L 13.519531 27.109375 C 13.796875 27.300781 14.117188 27.421875 14.453125 27.453125 L 16.460938 27.652344 C 16.738281 27.679688 17.019531 27.648438 17.28125 27.558594 L 19.832031 26.6875 L 20.167969 26.535156 L 21.683594 25.671875 L 21.8125 25.59375 L 23.351562 24.550781 L 23.414062 24.507812 L 25.144531 23.234375 L 25.199219 23.195312 L 26.929688 21.824219 L 26.960938 21.796875 L 28.691406 20.367188 L 28.71875 20.347656 L 30.375 18.925781 L 30.394531 18.910156 L 31.757812 17.707031 L 31.773438 17.695312 L 33.011719 16.582031 L 33.019531 16.574219 L 34.605469 15.132812 L 34.652344 15.089844 L 35.316406 14.441406 L 35.058594 14.65625 L 35.15625 14.585938 C 36.046875 13.980469 36.277344 12.769531 35.671875 11.878906 C 35.066406 10.988281 33.855469 10.757812 32.964844 11.363281 C 32.691406 11.550781 32.472656 11.800781 32.324219 12.09375 L 32.140625 12.453125 L 32.230469 12.292969 L 31.457031 13.523438 L 31.453125 13.53125 L 30.644531 14.816406 L 30.644531 14.820312 L 29.703125 16.328125 L 28.394531 18.433594 L 28.382812 18.449219 L 26.980469 20.746094 L 26.96875 20.765625 L 25.914062 22.539062 L 25.902344 22.554688 L 24.828125 24.398438 L 24.808594 24.429688 L 23.761719 26.296875 L 23.742188 26.332031 L 22.726562 28.242188 L 22.710938 28.273438 L 21.722656 30.203125 L 21.707031 30.238281 L 20.789062 32.117188 L 20.769531 32.164062 L 19.652344 34.617188 L 19.625 34.679688 L 18.664062 37 L 18.632812 37.082031 L 17.988281 38.875 L 17.960938 38.953125 L 17.453125 40.570312 L 17.417969 40.699219 L 16.933594 42.71875 L 16.890625 42.941406 L 16.792969 43.773438 C 16.769531 43.957031 16.777344 44.148438 16.808594 44.332031 L 16.84375 44.550781 C 17.023438 45.609375 18.03125 46.324219 19.09375 46.140625 C 19.328125 46.101562 19.554688 46.019531 19.757812 45.898438 L 19.914062 45.804688 C 20.050781 45.726562 20.175781 45.628906 20.289062 45.515625 L 20.828125 44.988281 L 20.589844 45.183594 L 22.503906 43.84375 L 22.589844 43.78125 L 23.496094 43.058594 L 23.398438 43.128906 L 25.042969 42.011719 C 25.730469 41.542969 25.910156 40.605469 25.441406 39.917969 C 25.011719 39.28125 24.167969 39.070312 23.488281 39.429688 L 21.734375 40.359375 L 21.738281 40.355469 L 20.710938 40.894531 L 20.660156 40.925781 L 18.628906 42.078125 L 18.671875 42.054688 L 18.007812 42.40625 L 17.929688 42.453125 L 17.773438 42.542969 C 16.847656 43.09375 16.539062 44.289062 17.089844 45.214844 C 17.636719 46.140625 18.832031 46.445312 19.757812 45.898438 C 20.453125 45.488281 20.820312 44.6875 20.6875 43.894531 L 20.648438 43.675781 L 20.664062 44.234375 L 20.761719 43.402344 L 20.722656 43.628906 L 21.207031 41.609375 L 21.171875 41.734375 L 21.679688 40.117188 L 21.652344 40.195312 L 22.296875 38.40625 L 22.265625 38.488281 L 23.226562 36.171875 L 23.199219 36.234375 L 24.316406 33.78125 L 24.296875 33.824219 L 25.210938 31.941406 L 25.191406 31.976562 L 26.179688 30.046875 L 26.164062 30.078125 L 27.183594 28.167969 L 27.164062 28.203125 L 28.210938 26.335938 L 28.191406 26.363281 L 29.269531 24.519531 L 29.261719 24.535156 L 30.320312 22.757812 L 30.308594 22.777344 L 31.710938 20.480469 L 31.703125 20.496094 L 33.011719 18.386719 L 33.011719 18.390625 L 33.953125 16.882812 L 33.949219 16.886719 L 34.753906 15.597656 L 34.753906 15.601562 L 35.527344 14.375 L 35.617188 14.214844 L 35.800781 13.859375 C 36.285156 12.898438 35.902344 11.726562 34.945312 11.238281 C 34.308594 10.917969 33.550781 10.964844 32.964844 11.363281 L 32.863281 11.433594 L 32.605469 11.644531 L 31.9375 12.292969 L 31.984375 12.25 L 30.398438 13.691406 L 30.40625 13.683594 L 29.167969 14.792969 L 29.183594 14.78125 L 27.816406 15.984375 L 27.835938 15.964844 L 26.179688 17.386719 L 26.207031 17.363281 L 24.476562 18.792969 L 24.511719 18.769531 L 22.78125 20.136719 L 22.832031 20.09375 L 21.105469 21.367188 L 21.167969 21.324219 L 19.625 22.367188 L 19.753906 22.289062 L 18.238281 23.148438 L 18.574219 23 L 16.023438 23.867188 L 16.84375 23.773438 L 14.835938 23.574219 L 15.765625 23.921875 L 14.164062 22.792969 L 14.691406 23.347656 L 13.425781 21.332031 L 13.601562 21.691406 L 13.109375 20.359375 L 13.164062 20.535156 L 12.785156 19.113281 L 12.8125 19.230469 L 12.511719 17.71875 L 12.527344 17.816406 L 12.300781 16.308594 L 12.3125 16.398438 L 12.050781 13.820312 L 12.058594 13.925781 L 11.976562 12.222656 L 11.976562 12.316406 L 11.976562 11.535156 C 11.976562 11.046875 11.796875 10.578125 11.464844 10.21875 L 11.4375 10.1875 C 10.71875 9.40625 9.507812 9.355469 8.726562 10.070312 C 8.363281 10.402344 8.140625 10.863281 8.109375 11.351562 L 8.078125 11.820312 L 8.074219 11.886719 L 8.035156 13.03125 L 8.035156 13.023438 L 7.960938 15.035156 L 7.964844 14.949219 L 7.835938 16.519531 L 7.84375 16.476562 L 7.660156 18.210938 L 7.664062 18.175781 L 7.402344 20.335938 L 7.40625 20.304688 L 7.085938 22.617188 L 7.089844 22.589844 L 6.804688 24.441406 L 6.804688 24.421875 L 6.488281 26.355469 L 6.492188 26.347656 L 6.164062 28.3125 L 6.164062 28.304688 L 5.804688 30.417969 L 5.808594 30.402344 L 5.429688 32.546875 L 5.429688 32.554688 L 5.066406 34.648438 L 5.0625 34.664062 L 4.59375 37.507812 L 4.589844 37.527344 L 4.175781 40.210938 L 4.175781 40.21875 L 3.859375 42.324219 L 3.855469 42.339844 L 3.597656 44.1875 L 3.589844 44.226562 L 3.359375 46.152344 L 3.347656 46.277344 L 3.328125 46.640625 C 3.265625 47.714844 4.089844 48.636719 5.164062 48.699219 C 6.136719 48.753906 7 48.082031 7.1875 47.128906 L 7.3125 46.484375 L 7.308594 46.503906 L 7.699219 44.628906 L 7.695312 44.648438 L 8.085938 42.855469 L 8.085938 42.871094 L 8.542969 40.847656 L 8.539062 40.863281 L 9.113281 38.417969 L 9.109375 38.425781 L 9.71875 35.875 L 9.71875 35.878906 L 10.371094 33.179688 L 10.371094 33.175781 L 11.007812 30.507812 L 11.011719 30.492188 L 11.554688 28.128906 L 11.558594 28.105469 L 12.035156 25.914062 L 12.042969 25.878906 L 12.347656 24.332031 L 12.355469 24.289062 L 12.597656 22.914062 L 12.609375 22.828125 L 12.835938 21.085938 L 12.851562 20.894531 L 12.882812 19.90625 C 12.914062 18.832031 12.070312 17.933594 10.992188 17.898438 C 9.917969 17.867188 9.019531 18.710938 8.984375 19.785156 Z M 8.984375 19.785156 "/>
<path style=" stroke:none;fill-rule:nonzero;fill:rgb(0%,54.902649%,22.744751%);fill-opacity:1;" d="M 43.972656 17.855469 L 43.855469 17.527344 L 43.859375 17.546875 L 43.769531 17.289062 L 43.640625 17.003906 L 43.5625 16.855469 L 43.671875 17.089844 L 43.636719 17 L 43.464844 18.746094 L 43.496094 18.695312 L 42.527344 19.480469 L 42.84375 19.363281 L 42.519531 19.453125 L 43.792969 19.214844 L 43.742188 19.222656 L 46.492188 18.789062 L 46.476562 18.789062 L 48.441406 18.496094 L 48.433594 18.496094 L 50.519531 18.195312 L 50.515625 18.195312 L 52.710938 17.882812 L 52.703125 17.882812 L 54.878906 17.582031 L 54.871094 17.582031 L 56.8125 17.324219 L 56.800781 17.324219 L 58.628906 17.09375 L 58.601562 17.09375 L 61.273438 16.792969 L 61.222656 16.800781 L 62.84375 16.660156 L 62.785156 16.664062 L 63.785156 16.605469 L 63.675781 16.609375 L 64.132812 16.609375 L 62.277344 15.265625 L 62.347656 15.480469 L 62.332031 14.324219 L 62.132812 14.996094 L 62.214844 14.769531 L 61.480469 16.449219 L 61.535156 16.335938 L 60.792969 17.769531 L 60.832031 17.703125 L 59.917969 19.304688 L 59.960938 19.234375 L 58.617188 21.382812 L 58.648438 21.332031 L 57.117188 23.621094 L 57.152344 23.574219 L 55.886719 25.351562 L 55.914062 25.316406 L 54.554688 27.140625 L 54.585938 27.101562 L 53.171875 28.898438 L 53.191406 28.871094 L 51.703125 30.691406 L 51.726562 30.664062 L 50.195312 32.46875 L 50.210938 32.453125 L 48.6875 34.199219 L 48.707031 34.179688 L 47.285156 35.765625 L 47.304688 35.75 L 45.890625 37.285156 L 45.90625 37.269531 L 44.546875 38.714844 L 44.566406 38.691406 L 42.882812 40.425781 L 42.902344 40.40625 L 41.355469 41.953125 L 41.378906 41.925781 L 39.363281 43.863281 L 39.445312 43.789062 L 38.359375 44.714844 L 38.660156 44.503906 L 38.097656 44.820312 L 39.085938 44.578125 L 38.789062 44.570312 L 39.761719 44.875 L 39.558594 44.742188 C 39.414062 44.644531 39.253906 44.570312 39.085938 44.519531 L 38.828125 44.4375 C 38.6875 44.390625 38.542969 44.363281 38.394531 44.351562 L 38.054688 44.324219 C 37.894531 44.308594 37.730469 44.316406 37.570312 44.34375 L 37.121094 44.421875 L 36.933594 44.460938 L 36.199219 44.664062 L 36.148438 44.675781 L 35.074219 45.003906 L 35.058594 45.007812 L 33.765625 45.410156 L 33.804688 45.398438 L 32.511719 45.773438 L 32.523438 45.769531 L 31.5625 46.039062 L 31.59375 46.03125 L 31.078125 46.164062 L 31.875 46.125 L 31.734375 46.101562 C 30.671875 45.9375 29.675781 46.667969 29.511719 47.730469 C 29.347656 48.792969 30.074219 49.789062 31.140625 49.953125 C 31.941406 50.078125 32.738281 49.691406 33.136719 48.980469 L 33.308594 48.675781 L 33.203125 48.84375 L 33.753906 48.0625 L 33.628906 48.21875 L 34.929688 46.71875 L 34.863281 46.792969 L 35.890625 45.722656 L 35.839844 45.773438 L 36.984375 44.664062 L 36.921875 44.722656 L 38.257812 43.542969 L 38.195312 43.597656 L 39.589844 42.460938 L 39.523438 42.515625 L 40.898438 41.496094 L 40.820312 41.550781 L 42.171875 40.652344 L 42.019531 40.742188 L 44.082031 39.632812 L 43.582031 39.816406 L 44.832031 39.539062 L 43.367188 39.28125 L 44.210938 39.816406 L 43.75 39.414062 L 44.917969 40.820312 L 44.964844 40.878906 L 45.882812 41.90625 L 45.9375 41.964844 L 46.984375 43.042969 L 47.0625 43.117188 L 48.375 44.332031 L 48.46875 44.410156 L 49.898438 45.578125 L 50.019531 45.667969 L 51.585938 46.757812 L 51.71875 46.84375 L 53.351562 47.792969 L 53.511719 47.878906 L 55.09375 48.609375 L 55.277344 48.6875 L 56.859375 49.230469 L 57.210938 49.316406 L 59.992188 49.71875 C 60.191406 49.75 60.394531 49.746094 60.589844 49.714844 L 62.773438 49.359375 C 63.136719 49.296875 63.476562 49.136719 63.753906 48.890625 L 65.152344 47.648438 C 65.515625 47.328125 65.742188 46.882812 65.796875 46.398438 L 66.074219 43.777344 L 66.082031 43.6875 L 66.167969 42.289062 C 66.179688 42.117188 66.167969 41.941406 66.128906 41.769531 L 65.734375 39.886719 C 65.511719 38.832031 64.480469 38.160156 63.425781 38.378906 C 62.371094 38.601562 61.699219 39.636719 61.917969 40.6875 C 61.917969 40.6875 61.917969 40.691406 61.917969 40.691406 L 62.316406 42.574219 L 62.277344 42.054688 L 62.191406 43.453125 L 62.199219 43.363281 L 61.917969 45.984375 L 62.5625 44.734375 L 61.164062 45.976562 L 62.144531 45.511719 L 59.960938 45.867188 L 60.554688 45.863281 L 57.773438 45.457031 L 58.128906 45.542969 L 56.546875 45 L 56.734375 45.074219 L 55.152344 44.34375 L 55.3125 44.425781 L 53.679688 43.472656 L 53.8125 43.558594 L 52.242188 42.46875 L 52.363281 42.554688 L 50.929688 41.390625 L 51.019531 41.46875 L 49.707031 40.253906 L 49.78125 40.328125 L 48.734375 39.25 L 48.792969 39.308594 L 47.871094 38.28125 L 47.917969 38.335938 L 46.753906 36.929688 C 46.625 36.769531 46.46875 36.632812 46.296875 36.523438 L 45.449219 35.988281 C 45.015625 35.714844 44.488281 35.621094 43.984375 35.734375 L 42.730469 36.015625 C 42.554688 36.054688 42.386719 36.117188 42.230469 36.199219 L 40.167969 37.3125 L 40.011719 37.40625 L 38.660156 38.308594 L 38.582031 38.363281 L 37.203125 39.382812 L 37.132812 39.4375 L 35.738281 40.570312 L 35.675781 40.625 L 34.339844 41.804688 L 34.277344 41.863281 L 33.128906 42.972656 L 33.078125 43.023438 L 32.054688 44.089844 L 31.984375 44.164062 L 30.683594 45.667969 L 30.5625 45.824219 L 30.011719 46.605469 L 29.910156 46.773438 L 29.738281 47.074219 C 29.210938 48.015625 29.546875 49.203125 30.484375 49.730469 C 30.6875 49.84375 30.910156 49.917969 31.140625 49.953125 L 31.277344 49.976562 C 31.542969 50.015625 31.8125 50.003906 32.074219 49.933594 L 32.585938 49.800781 L 32.617188 49.792969 L 33.578125 49.519531 L 33.59375 49.515625 L 34.886719 49.144531 L 34.925781 49.132812 L 36.21875 48.730469 L 36.203125 48.734375 L 37.277344 48.410156 L 37.226562 48.421875 L 37.960938 48.222656 L 37.773438 48.261719 L 38.222656 48.1875 L 37.738281 48.207031 L 38.078125 48.234375 L 37.648438 48.152344 L 37.910156 48.234375 L 38.238281 48.308594 L 38.476562 48.339844 L 38.671875 48.355469 L 38.964844 48.363281 C 39.308594 48.375 39.648438 48.292969 39.949219 48.125 L 40.511719 47.808594 L 40.816406 47.597656 L 41.902344 46.671875 L 41.988281 46.597656 L 44.003906 44.660156 L 44.03125 44.636719 L 45.601562 43.066406 L 47.285156 41.332031 L 47.308594 41.308594 L 48.667969 39.863281 L 48.679688 39.847656 L 50.09375 38.3125 L 50.109375 38.292969 L 51.53125 36.707031 L 51.546875 36.6875 L 53.070312 34.941406 L 53.085938 34.921875 L 54.617188 33.113281 L 54.636719 33.089844 L 56.125 31.269531 L 56.148438 31.242188 L 57.5625 29.441406 L 57.574219 29.429688 L 58.960938 27.628906 L 58.988281 27.59375 L 60.28125 25.839844 L 60.316406 25.789062 L 61.875 23.519531 L 61.917969 23.449219 L 63.261719 21.304688 L 63.304688 21.234375 L 64.21875 19.628906 L 64.253906 19.5625 L 65 18.125 L 65.054688 18.011719 L 65.789062 16.332031 L 65.871094 16.101562 L 66.070312 15.429688 C 66.179688 15.050781 66.175781 14.648438 66.054688 14.273438 L 65.980469 14.054688 C 65.71875 13.253906 64.972656 12.710938 64.128906 12.710938 L 63.671875 12.710938 L 63.566406 12.714844 L 62.5625 12.769531 L 62.503906 12.773438 L 60.886719 12.914062 L 60.835938 12.921875 L 58.164062 13.222656 L 58.136719 13.226562 L 56.308594 13.457031 L 56.296875 13.460938 L 54.355469 13.71875 L 54.34375 13.722656 L 52.167969 14.023438 L 52.160156 14.023438 L 49.964844 14.335938 L 49.960938 14.335938 L 47.875 14.640625 L 47.867188 14.640625 L 45.898438 14.9375 L 45.882812 14.9375 L 43.132812 15.375 L 43.082031 15.382812 L 41.808594 15.621094 L 41.488281 15.707031 L 41.171875 15.824219 C 40.773438 15.972656 40.433594 16.25 40.203125 16.609375 L 40.171875 16.660156 C 39.839844 17.183594 39.777344 17.828125 40 18.40625 L 40.035156 18.492188 L 40.144531 18.730469 L 40.226562 18.875 L 40.097656 18.589844 L 40.1875 18.84375 L 40.191406 18.863281 L 40.3125 19.191406 C 40.679688 20.203125 41.800781 20.722656 42.8125 20.351562 C 43.824219 19.984375 44.34375 18.867188 43.972656 17.855469 Z M 43.972656 17.855469 "/>
<path style=" stroke:none;fill-rule:nonzero;fill:rgb(0%,54.902649%,22.744751%);fill-opacity:1;" d="M 45.953125 33.921875 L 46.636719 33.921875 L 46.859375 33.910156 L 48.167969 33.757812 L 48.292969 33.738281 L 50.609375 33.320312 L 50.675781 33.304688 L 52.1875 32.976562 L 52.21875 32.96875 L 53.789062 32.597656 L 53.824219 32.589844 L 55.425781 32.179688 L 55.449219 32.175781 L 57.015625 31.753906 L 57.027344 31.753906 L 59.605469 31.046875 L 61.175781 30.617188 L 61.042969 30.648438 L 61.960938 30.464844 L 61.769531 30.492188 L 62.335938 30.4375 C 62.496094 30.421875 62.65625 30.386719 62.808594 30.332031 L 63.09375 30.226562 L 62.890625 30.289062 L 63.410156 30.167969 C 63.617188 30.117188 63.8125 30.03125 63.988281 29.914062 L 64.128906 29.816406 L 63.730469 30.015625 L 64.089844 29.894531 C 64.878906 29.628906 65.304688 28.777344 65.039062 27.984375 C 64.875 27.496094 64.476562 27.125 63.976562 27 L 63.609375 26.910156 L 64.078125 27.109375 L 63.933594 27.019531 C 63.746094 26.902344 63.535156 26.820312 63.316406 26.78125 L 62.789062 26.6875 L 63.09375 26.769531 L 62.808594 26.664062 C 62.535156 26.566406 62.242188 26.53125 61.957031 26.558594 L 61.386719 26.613281 L 61.195312 26.644531 L 60.28125 26.828125 L 60.148438 26.859375 L 58.574219 27.289062 L 58.578125 27.289062 L 55.996094 27.992188 L 56.007812 27.988281 L 54.441406 28.410156 L 54.460938 28.402344 L 52.855469 28.8125 L 52.890625 28.804688 L 51.324219 29.175781 L 51.359375 29.167969 L 49.847656 29.496094 L 49.914062 29.484375 L 47.597656 29.90625 L 47.722656 29.886719 L 46.414062 30.035156 L 46.636719 30.023438 L 45.953125 30.023438 C 44.875 30.023438 44.003906 30.898438 44.003906 31.972656 C 44.003906 33.050781 44.875 33.921875 45.949219 33.921875 Z M 45.953125 33.921875 "/>
<path style=" stroke:none;fill-rule:nonzero;fill:rgb(0%,54.902649%,22.744751%);fill-opacity:1;" d="M 78.945312 18.316406 L 78.75 19.046875 L 78.71875 19.175781 L 78.410156 20.707031 L 78.40625 20.730469 L 77.941406 23.222656 L 77.945312 23.210938 L 77.625 24.855469 L 77.625 24.863281 L 77.296875 26.605469 L 77.292969 26.636719 L 76.957031 28.574219 L 76.953125 28.601562 L 76.644531 30.574219 L 76.640625 30.609375 L 76.371094 32.550781 L 76.367188 32.589844 L 76.140625 34.492188 L 76.136719 34.542969 L 75.976562 36.242188 L 75.972656 36.285156 L 75.863281 37.902344 L 75.859375 37.964844 L 75.769531 40.507812 L 75.765625 40.542969 L 75.742188 42.082031 L 75.742188 42.070312 L 75.722656 42.824219 L 75.722656 43.175781 C 75.722656 44.25 76.59375 45.125 77.671875 45.125 C 78.226562 45.125 78.753906 44.886719 79.125 44.472656 L 79.308594 44.265625 L 79.53125 43.960938 L 79.582031 43.875 L 79.519531 43.980469 L 79.703125 43.707031 C 80.308594 42.820312 80.078125 41.605469 79.1875 41 C 78.296875 40.394531 77.085938 40.625 76.480469 41.515625 L 76.296875 41.785156 L 76.230469 41.886719 L 76.179688 41.972656 L 76.402344 41.667969 L 76.21875 41.875 C 75.5 42.679688 75.570312 43.910156 76.371094 44.628906 C 77.175781 45.34375 78.40625 45.277344 79.125 44.472656 C 79.441406 44.117188 79.621094 43.65625 79.621094 43.175781 L 79.621094 42.871094 L 79.617188 42.917969 L 79.636719 42.164062 L 79.636719 42.148438 L 79.664062 40.609375 L 79.664062 40.644531 L 79.75 38.101562 L 79.746094 38.167969 L 79.855469 36.554688 L 79.851562 36.597656 L 80.011719 34.898438 L 80.003906 34.949219 L 80.230469 33.046875 L 80.222656 33.085938 L 80.492188 31.144531 L 80.488281 31.175781 L 80.796875 29.203125 L 80.792969 29.230469 L 81.125 27.292969 L 81.117188 27.320312 L 81.445312 25.582031 L 81.441406 25.59375 L 81.761719 23.949219 L 81.761719 23.9375 L 82.226562 21.441406 L 82.226562 21.453125 L 82.519531 19.921875 L 82.488281 20.066406 L 82.6875 19.335938 C 82.96875 18.304688 82.359375 17.238281 81.324219 16.957031 C 80.292969 16.675781 79.226562 17.285156 78.945312 18.316406 Z M 78.945312 18.316406 "/>
<path style=" stroke:none;fill-rule:nonzero;fill:rgb(0%,54.902649%,22.744751%);fill-opacity:1;" d="M 77.21875 20.0625 L 77.597656 19.816406 L 77.332031 19.960938 L 78.347656 19.503906 L 78.179688 19.570312 L 80.148438 18.898438 L 80.082031 18.921875 L 81.5 18.492188 L 81.445312 18.507812 L 82.980469 18.097656 L 82.921875 18.113281 L 84.6875 17.699219 L 84.59375 17.71875 L 86.429688 17.382812 L 86.296875 17.402344 L 88.226562 17.1875 L 88.085938 17.195312 L 90.023438 17.117188 L 89.855469 17.117188 L 91.699219 17.199219 L 91.542969 17.183594 L 93.339844 17.410156 L 93.183594 17.386719 L 94.867188 17.742188 L 94.699219 17.699219 L 96.304688 18.1875 L 96.136719 18.128906 L 97.5625 18.714844 L 97.378906 18.628906 L 98.6875 19.332031 L 98.382812 19.132812 L 100.324219 20.703125 L 99.941406 20.285156 L 101.140625 22.046875 L 100.851562 21.390625 L 101.277344 23.234375 L 101.277344 22.355469 L 100.851562 24.179688 L 101.144531 23.515625 L 99.96875 25.222656 L 100.238281 24.910156 L 98.71875 26.335938 L 98.921875 26.171875 L 97.496094 27.191406 L 97.613281 27.113281 L 96.660156 27.691406 L 97.074219 27.503906 L 96.527344 27.679688 L 97.621094 27.648438 L 97.117188 27.515625 L 97.246094 27.554688 L 96.542969 27.316406 L 96.523438 27.3125 L 95.761719 27.058594 L 95.65625 27.027344 L 95.070312 26.871094 C 94.878906 26.820312 94.679688 26.800781 94.480469 26.808594 L 94.234375 26.820312 C 93.160156 26.867188 92.328125 27.777344 92.375 28.855469 C 92.386719 29.085938 92.4375 29.3125 92.53125 29.527344 L 92.558594 29.59375 L 93.578125 27.046875 L 93.5 27.078125 L 94.101562 26.925781 L 93.933594 26.941406 L 94.242188 26.9375 L 93.839844 26.910156 L 93.632812 26.90625 L 93.0625 26.929688 L 93.015625 26.929688 L 92.21875 26.980469 L 92.195312 26.984375 L 91.066406 27.066406 L 91.078125 27.066406 L 89.734375 27.15625 L 89.730469 27.15625 L 88.503906 27.242188 L 88.5 27.242188 L 87.589844 27.308594 L 87.566406 27.3125 L 87.121094 27.347656 C 86.199219 27.429688 85.460938 28.144531 85.351562 29.058594 L 85.347656 29.117188 C 85.226562 30.121094 85.894531 31.050781 86.886719 31.257812 L 87.355469 31.351562 L 87.390625 31.359375 L 88.347656 31.539062 L 88.324219 31.535156 L 89.96875 31.867188 L 89.898438 31.851562 L 92.246094 32.414062 L 92.167969 32.390625 L 93.53125 32.78125 L 93.472656 32.761719 L 94.867188 33.207031 L 94.808594 33.1875 L 96.285156 33.707031 L 96.210938 33.679688 L 97.667969 34.261719 L 97.578125 34.222656 L 98.9375 34.84375 L 98.851562 34.800781 L 100.136719 35.46875 L 99.996094 35.386719 L 102.039062 36.671875 L 101.816406 36.511719 L 103.128906 37.617188 L 102.746094 37.183594 L 103.347656 38.113281 L 103.035156 37.113281 L 103.058594 37.902344 L 103.257812 36.988281 L 102.863281 37.792969 L 103.074219 37.457031 L 102.320312 38.421875 L 102.546875 38.175781 L 101.199219 39.402344 L 101.363281 39.269531 L 99.1875 40.855469 L 99.296875 40.777344 L 97.882812 41.664062 L 97.953125 41.625 L 96.441406 42.484375 L 96.503906 42.449219 L 94.867188 43.304688 L 94.957031 43.261719 L 93.257812 44.042969 L 93.371094 43.996094 L 91.59375 44.679688 L 91.726562 44.632812 L 89.925781 45.183594 L 90.089844 45.140625 L 88.375 45.507812 L 88.554688 45.480469 L 86.835938 45.679688 L 87.054688 45.667969 L 85.335938 45.671875 L 85.53125 45.683594 L 83.792969 45.515625 L 83.984375 45.542969 L 82.101562 45.171875 L 82.242188 45.207031 L 80.367188 44.6875 L 80.484375 44.722656 L 78.675781 44.097656 L 78.753906 44.125 L 76.996094 43.433594 L 77.03125 43.449219 L 75.40625 42.777344 L 75.433594 42.785156 L 73.90625 42.128906 L 73.910156 42.128906 L 71.652344 41.148438 L 71.660156 41.152344 L 70.507812 40.644531 L 70.550781 40.664062 L 70.078125 40.441406 L 70.1875 40.496094 L 70.039062 40.414062 L 70.351562 40.628906 L 70.300781 40.585938 L 70.554688 40.839844 L 70.503906 40.78125 L 70.886719 42.496094 L 70.917969 42.371094 C 70.972656 42.15625 70.988281 41.933594 70.96875 41.714844 L 70.964844 41.644531 L 70.628906 42.921875 L 70.691406 42.832031 C 71.300781 41.945312 71.074219 40.730469 70.1875 40.121094 C 69.296875 39.511719 68.085938 39.738281 67.476562 40.628906 L 67.414062 40.71875 C 67.160156 41.09375 67.039062 41.542969 67.082031 41.996094 L 67.085938 42.066406 L 67.140625 41.414062 L 67.109375 41.539062 C 66.957031 42.136719 67.097656 42.773438 67.492188 43.253906 L 67.539062 43.3125 L 67.792969 43.570312 L 67.847656 43.613281 L 68.160156 43.828125 L 68.308594 43.910156 L 68.414062 43.964844 L 68.886719 44.1875 L 68.933594 44.207031 L 70.085938 44.71875 L 70.097656 44.722656 L 72.355469 45.703125 L 72.363281 45.707031 L 73.890625 46.367188 L 73.914062 46.375 L 75.535156 47.050781 L 75.570312 47.0625 L 77.324219 47.753906 L 77.402344 47.78125 L 79.210938 48.40625 L 79.328125 48.445312 L 81.203125 48.960938 L 81.347656 48.996094 L 83.230469 49.367188 L 83.421875 49.394531 L 85.15625 49.5625 L 85.351562 49.570312 L 87.070312 49.5625 L 87.289062 49.550781 L 89.007812 49.351562 L 89.191406 49.320312 L 90.90625 48.953125 L 91.066406 48.910156 L 92.867188 48.359375 L 93 48.316406 L 94.773438 47.628906 L 94.882812 47.582031 L 96.582031 46.804688 L 96.671875 46.761719 L 98.308594 45.90625 L 98.371094 45.871094 L 99.882812 45.011719 L 99.953125 44.96875 L 101.367188 44.082031 L 101.480469 44.003906 L 103.65625 42.421875 L 103.820312 42.289062 L 105.167969 41.0625 L 105.398438 40.816406 L 106.148438 39.847656 L 106.359375 39.511719 L 106.753906 38.707031 C 106.894531 38.425781 106.964844 38.113281 106.953125 37.796875 L 106.933594 37.003906 C 106.921875 36.648438 106.816406 36.304688 106.621094 36.003906 L 106.023438 35.074219 C 105.917969 34.910156 105.789062 34.765625 105.644531 34.640625 L 104.332031 33.535156 L 104.113281 33.371094 L 102.074219 32.089844 L 101.933594 32.007812 L 100.648438 31.34375 L 100.558594 31.300781 L 99.199219 30.675781 L 99.109375 30.640625 L 97.652344 30.058594 L 97.582031 30.03125 L 96.109375 29.511719 L 96.050781 29.492188 L 94.652344 29.046875 L 94.597656 29.03125 L 93.234375 28.644531 L 93.152344 28.621094 L 90.808594 28.0625 L 90.738281 28.046875 L 89.09375 27.714844 L 89.070312 27.710938 L 88.113281 27.53125 L 88.144531 27.535156 L 87.675781 27.4375 L 89.214844 29.578125 L 89.222656 29.523438 L 87.457031 31.230469 L 87.898438 31.195312 L 87.875 31.195312 L 88.78125 31.128906 L 88.777344 31.128906 L 90.003906 31.042969 L 89.996094 31.042969 L 91.339844 30.953125 L 91.355469 30.953125 L 92.484375 30.871094 L 92.460938 30.871094 L 93.257812 30.820312 L 93.214844 30.824219 L 93.78125 30.800781 L 93.574219 30.800781 L 93.976562 30.828125 L 94.28125 30.824219 L 94.453125 30.808594 C 94.65625 30.789062 94.859375 30.738281 95.050781 30.65625 L 95.128906 30.621094 C 96.109375 30.195312 96.5625 29.058594 96.144531 28.070312 L 96.117188 28.003906 C 95.695312 27.015625 94.550781 26.550781 93.5625 26.972656 C 92.570312 27.394531 92.109375 28.539062 92.53125 29.527344 C 92.847656 30.277344 93.597656 30.75 94.410156 30.714844 L 94.65625 30.703125 L 94.0625 30.636719 L 94.648438 30.792969 L 94.542969 30.761719 L 95.308594 31.015625 L 95.292969 31.007812 L 95.996094 31.246094 L 96.125 31.285156 L 96.632812 31.417969 C 96.992188 31.515625 97.371094 31.503906 97.726562 31.390625 L 98.273438 31.210938 C 98.417969 31.164062 98.554688 31.101562 98.6875 31.023438 L 99.640625 30.441406 L 99.761719 30.363281 L 101.1875 29.34375 L 101.390625 29.175781 L 102.90625 27.75 C 103.007812 27.65625 103.101562 27.550781 103.179688 27.433594 L 104.355469 25.726562 C 104.492188 25.527344 104.589844 25.300781 104.648438 25.066406 L 105.074219 23.242188 C 105.140625 22.953125 105.140625 22.652344 105.074219 22.363281 L 104.648438 20.515625 C 104.597656 20.28125 104.5 20.058594 104.363281 19.859375 L 103.164062 18.09375 C 103.054688 17.933594 102.925781 17.792969 102.777344 17.675781 L 100.835938 16.101562 L 100.535156 15.902344 L 99.230469 15.195312 L 99.046875 15.109375 L 97.617188 14.523438 L 97.445312 14.460938 L 95.839844 13.972656 L 95.671875 13.929688 L 93.988281 13.570312 L 93.828125 13.542969 L 92.027344 13.316406 L 91.871094 13.304688 L 90.027344 13.222656 L 89.863281 13.222656 L 87.929688 13.300781 L 87.789062 13.3125 L 85.863281 13.53125 L 85.730469 13.546875 L 83.894531 13.882812 L 83.800781 13.902344 L 82.03125 14.316406 L 81.972656 14.332031 L 80.433594 14.746094 L 80.375 14.761719 L 78.957031 15.1875 L 78.886719 15.210938 L 76.917969 15.882812 L 76.75 15.949219 L 75.734375 16.40625 L 75.46875 16.554688 L 75.089844 16.800781 C 74.1875 17.386719 73.933594 18.59375 74.523438 19.496094 C 75.109375 20.398438 76.316406 20.652344 77.21875 20.0625 Z M 77.21875 20.0625 "/>
<path style=" stroke:none;fill-rule:nonzero;fill:rgb(90.588379%,7.058716%,14.117432%);fill-opacity:1;" d="M 147.148438 33.425781 L 146.722656 32.683594 L 146.484375 32.351562 L 145.769531 31.550781 L 145.46875 31.277344 L 144.25 30.382812 C 144.136719 30.296875 144.007812 30.226562 143.875 30.167969 L 142.023438 29.363281 L 141.722656 29.257812 L 139.550781 28.707031 L 139.3125 28.664062 L 136.988281 28.375 L 136.691406 28.359375 L 134.660156 28.417969 C 134.488281 28.421875 134.316406 28.449219 134.152344 28.5 L 132.664062 28.953125 C 132.457031 29.015625 132.261719 29.109375 132.085938 29.238281 L 131.019531 30.007812 C 130.828125 30.144531 130.667969 30.316406 130.535156 30.511719 L 129.871094 31.511719 C 129.789062 31.636719 129.722656 31.769531 129.667969 31.910156 L 129.242188 33.054688 C 129.167969 33.253906 129.128906 33.460938 129.121094 33.675781 L 129.085938 34.875 C 129.082031 35.109375 129.117188 35.34375 129.191406 35.5625 L 129.625 36.828125 C 129.683594 36.992188 129.761719 37.152344 129.859375 37.296875 L 130.730469 38.566406 L 130.9375 38.820312 L 132.035156 39.957031 L 132.183594 40.09375 L 133.425781 41.144531 L 133.488281 41.191406 L 134.597656 42.058594 L 134.542969 42.015625 L 135.371094 42.707031 L 135.179688 42.523438 L 135.742188 43.136719 L 135.371094 42.546875 L 135.5625 43.027344 L 135.425781 42.433594 L 135.457031 42.886719 L 135.480469 42.433594 L 135.410156 42.859375 L 135.671875 42.15625 L 135.4375 42.539062 L 136.023438 41.933594 L 135.4375 42.320312 L 135.816406 42.128906 L 134.746094 42.535156 L 134.929688 42.476562 L 133.46875 42.871094 L 133.609375 42.839844 L 131.859375 43.175781 L 132 43.152344 L 130.207031 43.359375 L 130.359375 43.347656 L 128.785156 43.40625 L 129 43.410156 L 127.746094 43.316406 L 128.191406 43.402344 L 127.320312 43.125 L 127.949219 43.464844 L 127.429688 43.046875 L 127.863281 43.53125 L 127.515625 42.976562 L 127.675781 43.300781 L 127.414062 42.621094 L 127.484375 42.847656 L 127.28125 42.035156 L 127.296875 42.109375 L 127.117188 41.253906 L 127.140625 41.410156 L 127.054688 40.734375 L 125.921875 42.757812 L 126.53125 42.484375 L 126.679688 42.410156 L 126.855469 42.3125 L 125.484375 42.515625 L 126.152344 42.664062 C 127.203125 42.894531 128.246094 42.230469 128.476562 41.179688 C 128.710938 40.128906 128.046875 39.089844 126.996094 38.855469 L 126.328125 38.707031 C 125.859375 38.605469 125.375 38.675781 124.957031 38.910156 L 124.785156 39.003906 L 124.933594 38.929688 L 124.324219 39.203125 C 123.542969 39.554688 123.082031 40.375 123.191406 41.226562 L 123.277344 41.90625 L 123.304688 42.0625 L 123.484375 42.917969 L 123.5 42.992188 L 123.707031 43.804688 L 123.78125 44.035156 L 124.042969 44.714844 L 124.207031 45.039062 L 124.554688 45.59375 C 124.667969 45.78125 124.816406 45.945312 124.984375 46.082031 L 125.503906 46.5 C 125.691406 46.652344 125.90625 46.765625 126.136719 46.839844 L 127.007812 47.117188 C 127.152344 47.164062 127.300781 47.191406 127.453125 47.203125 L 128.710938 47.296875 L 128.925781 47.300781 L 130.503906 47.242188 L 130.65625 47.230469 L 132.449219 47.023438 L 132.59375 47.003906 L 134.34375 46.667969 L 134.488281 46.632812 L 135.949219 46.238281 L 136.132812 46.175781 L 137.203125 45.769531 C 137.335938 45.71875 137.460938 45.652344 137.582031 45.574219 L 138.167969 45.1875 C 138.40625 45.03125 138.605469 44.824219 138.757812 44.582031 L 138.992188 44.203125 C 139.121094 43.988281 139.210938 43.75 139.253906 43.5 L 139.324219 43.074219 C 139.347656 42.925781 139.355469 42.773438 139.347656 42.625 L 139.316406 42.171875 C 139.300781 41.96875 139.257812 41.769531 139.179688 41.578125 L 138.992188 41.101562 C 138.902344 40.882812 138.777344 40.683594 138.621094 40.511719 L 138.058594 39.898438 L 137.871094 39.714844 L 137.042969 39.023438 L 136.992188 38.980469 L 135.882812 38.117188 L 135.941406 38.164062 L 134.695312 37.117188 L 134.839844 37.253906 L 133.742188 36.113281 L 133.945312 36.363281 L 133.074219 35.09375 L 133.3125 35.5625 L 132.878906 34.300781 L 132.984375 34.988281 L 133.019531 33.789062 L 132.898438 34.410156 L 133.320312 33.269531 L 133.117188 33.667969 L 133.785156 32.667969 L 133.300781 33.167969 L 134.371094 32.394531 L 133.792969 32.679688 L 135.28125 32.230469 L 134.773438 32.3125 L 136.800781 32.253906 L 136.503906 32.242188 L 138.832031 32.53125 L 138.59375 32.488281 L 140.765625 33.039062 L 140.46875 32.9375 L 142.320312 33.742188 L 141.945312 33.527344 L 143.164062 34.417969 L 142.863281 34.144531 L 143.578125 34.949219 L 143.339844 34.617188 L 143.765625 35.363281 C 144.300781 36.296875 145.492188 36.621094 146.425781 36.085938 C 147.359375 35.550781 147.683594 34.359375 147.148438 33.425781 Z M 147.148438 33.425781 "/>
<path style=" stroke:none;fill-rule:nonzero;fill:rgb(90.588379%,7.058716%,14.117432%);fill-opacity:1;" d="M 150.253906 35.183594 L 149.886719 35.941406 L 149.796875 36.15625 L 149.46875 37.109375 L 149.382812 37.464844 L 149.214844 38.597656 C 149.195312 38.742188 149.191406 38.890625 149.203125 39.039062 L 149.320312 40.480469 C 149.339844 40.683594 149.386719 40.882812 149.464844 41.070312 L 150.132812 42.667969 C 150.210938 42.863281 150.324219 43.042969 150.460938 43.199219 L 151.851562 44.792969 C 151.964844 44.921875 152.097656 45.035156 152.242188 45.132812 L 154.328125 46.519531 C 154.457031 46.605469 154.589844 46.675781 154.734375 46.726562 L 157.359375 47.695312 L 157.636719 47.777344 L 159.066406 48.074219 L 159.253906 48.105469 L 160.699219 48.261719 L 160.996094 48.273438 L 163.722656 48.152344 C 163.867188 48.148438 164.011719 48.125 164.152344 48.085938 L 166.433594 47.457031 C 166.628906 47.40625 166.8125 47.324219 166.980469 47.210938 L 168.605469 46.15625 C 168.792969 46.035156 168.957031 45.878906 169.089844 45.703125 L 170.015625 44.488281 C 170.132812 44.332031 170.226562 44.160156 170.292969 43.980469 L 170.71875 42.820312 L 170.816406 42.460938 L 170.980469 41.449219 L 171.003906 41.226562 L 171.042969 40.375 L 171.042969 40.207031 L 171.007812 39.417969 L 171 39.28125 L 170.917969 38.585938 L 170.890625 38.414062 L 170.777344 37.851562 L 170.738281 37.703125 L 170.609375 37.253906 L 170.574219 37.140625 L 170.425781 36.722656 L 170.375 36.601562 L 170.214844 36.230469 L 170.300781 36.472656 L 170.222656 36.195312 L 170.222656 37.265625 L 170.261719 37.128906 L 168.304688 38.542969 L 168.667969 38.558594 L 168.511719 38.546875 L 169.839844 38.710938 L 169.855469 38.710938 L 170.4375 38.777344 L 170.433594 38.777344 L 171.566406 38.910156 C 172.632812 39.035156 173.601562 38.273438 173.730469 37.203125 C 173.855469 36.132812 173.089844 35.164062 172.019531 35.039062 L 170.890625 34.90625 L 170.882812 34.90625 L 170.300781 34.839844 L 170.316406 34.839844 L 168.988281 34.675781 L 168.835938 34.664062 L 168.46875 34.648438 C 167.570312 34.609375 166.761719 35.195312 166.511719 36.058594 L 166.472656 36.195312 C 166.375 36.546875 166.375 36.917969 166.476562 37.269531 L 166.554688 37.546875 L 166.640625 37.789062 L 166.804688 38.160156 L 166.753906 38.035156 L 166.902344 38.453125 L 166.867188 38.339844 L 166.996094 38.785156 L 166.960938 38.636719 L 167.074219 39.199219 L 167.046875 39.023438 L 167.125 39.722656 L 167.113281 39.582031 L 167.148438 40.371094 L 167.148438 40.199219 L 167.109375 41.046875 L 167.132812 40.824219 L 166.96875 41.835938 L 167.0625 41.476562 L 166.636719 42.632812 L 166.914062 42.125 L 165.988281 43.34375 L 166.476562 42.890625 L 164.855469 43.945312 L 165.402344 43.699219 L 163.121094 44.328125 L 163.550781 44.261719 L 160.824219 44.378906 L 161.121094 44.390625 L 159.675781 44.230469 L 159.863281 44.261719 L 158.433594 43.960938 L 158.710938 44.042969 L 156.085938 43.070312 L 156.488281 43.277344 L 154.398438 41.886719 L 154.785156 42.226562 L 153.398438 40.636719 L 153.730469 41.167969 L 153.0625 39.570312 L 153.207031 40.160156 L 153.085938 38.71875 L 153.074219 39.160156 L 153.238281 38.027344 L 153.152344 38.382812 L 153.480469 37.425781 L 153.394531 37.640625 L 153.761719 36.882812 C 154.230469 35.914062 153.824219 34.75 152.855469 34.28125 C 151.886719 33.8125 150.722656 34.214844 150.253906 35.183594 Z M 150.253906 35.183594 "/>
<path style=" stroke:none;fill-rule:nonzero;fill:rgb(90.588379%,7.058716%,14.117432%);fill-opacity:1;" d="M 178.457031 34.988281 L 178.476562 36.167969 L 178.476562 36.1875 L 178.515625 37.542969 L 178.515625 37.554688 L 178.574219 39.21875 L 178.570312 39.210938 L 178.628906 41.027344 L 178.628906 41.023438 L 178.675781 42.785156 L 178.675781 42.777344 L 178.710938 44.304688 L 178.710938 44.292969 L 178.730469 45.421875 L 178.730469 45.402344 L 178.734375 46.105469 L 178.738281 45.996094 L 178.71875 46.355469 L 178.761719 46.042969 L 178.742188 46.136719 C 178.515625 47.191406 179.183594 48.226562 180.234375 48.453125 C 181.289062 48.679688 182.324219 48.011719 182.550781 46.957031 C 182.648438 46.503906 182.582031 46.027344 182.359375 45.621094 L 182.332031 45.570312 L 182.25 45.433594 L 182.039062 45.109375 L 182.183594 45.375 L 182.125 45.238281 C 182.0625 45.109375 181.992188 44.984375 181.90625 44.871094 L 181.703125 44.597656 C 181.054688 43.738281 179.835938 43.5625 178.972656 44.210938 C 178.113281 44.855469 177.9375 46.078125 178.585938 46.9375 L 178.785156 47.207031 L 178.570312 46.839844 L 178.628906 46.972656 L 178.777344 47.242188 L 178.988281 47.566406 L 178.90625 47.425781 L 178.933594 47.476562 C 179.445312 48.421875 180.628906 48.773438 181.574219 48.261719 C 182.074219 47.992188 182.429688 47.515625 182.550781 46.957031 L 182.570312 46.863281 L 182.613281 46.546875 L 182.628906 46.1875 L 182.632812 46.078125 L 182.628906 45.375 L 182.628906 45.355469 L 182.609375 44.226562 L 182.609375 44.210938 L 182.574219 42.6875 L 182.574219 42.679688 L 182.523438 40.914062 L 182.523438 40.910156 L 182.46875 39.089844 L 182.46875 39.085938 L 182.410156 37.421875 L 182.410156 37.4375 L 182.375 36.082031 L 182.375 36.101562 L 182.355469 34.921875 C 182.335938 33.847656 181.449219 32.988281 180.371094 33.007812 C 179.296875 33.027344 178.4375 33.914062 178.457031 34.988281 Z M 178.457031 34.988281 "/>
<path style=" stroke:none;fill-rule:nonzero;fill:rgb(90.588379%,7.058716%,14.117432%);fill-opacity:1;" d="M 179.628906 26.117188 L 180.070312 26.304688 L 180.175781 26.347656 L 180.386719 26.421875 L 180.144531 26.316406 L 180.402344 26.453125 L 181.957031 22.867188 L 181.714844 22.761719 L 181.503906 22.683594 L 181.609375 22.726562 L 181.167969 22.535156 C 180.179688 22.109375 179.03125 22.566406 178.605469 23.558594 C 178.183594 24.546875 178.640625 25.691406 179.628906 26.117188 Z M 179.628906 26.117188 "/>
<path style=" stroke:none;fill-rule:nonzero;fill:rgb(90.588379%,7.058716%,14.117432%);fill-opacity:1;" d="M 190.828125 32.949219 L 190.628906 34.222656 L 190.613281 34.335938 L 190.472656 35.746094 L 190.46875 35.808594 L 190.355469 37.5 L 190.351562 37.582031 L 190.316406 39.285156 L 190.316406 39.300781 L 190.296875 40.820312 L 190.296875 40.835938 L 190.289062 42.089844 L 190.289062 42.070312 L 190.273438 42.984375 L 190.277344 42.960938 L 190.257812 43.640625 L 190.257812 43.617188 L 190.238281 44.089844 L 190.238281 44.074219 L 190.222656 44.390625 L 190.222656 44.472656 L 190.21875 44.671875 L 190.234375 44.449219 L 190.21875 44.570312 L 190.230469 44.507812 L 190.210938 44.625 L 190.246094 44.449219 L 190.210938 44.582031 L 190.203125 44.613281 L 190.171875 44.757812 L 190.132812 44.964844 L 190.113281 45.117188 L 190.113281 45.136719 L 190.097656 45.269531 L 190.082031 45.492188 L 190.082031 45.609375 L 190.113281 45.277344 L 190.097656 45.367188 L 190.09375 45.390625 L 190.074219 45.511719 L 190.183594 45.101562 L 190.164062 45.148438 L 190.0625 45.519531 L 190.046875 45.605469 C 189.855469 46.664062 190.558594 47.675781 191.617188 47.867188 C 192.679688 48.058594 193.691406 47.355469 193.882812 46.292969 L 193.898438 46.210938 L 193.792969 46.578125 L 193.8125 46.53125 C 193.863281 46.398438 193.902344 46.261719 193.921875 46.121094 L 193.941406 46.003906 L 193.9375 46.027344 L 193.953125 45.9375 L 193.980469 45.609375 L 193.980469 45.492188 L 193.96875 45.714844 L 193.984375 45.582031 L 193.980469 45.601562 L 194 45.453125 L 193.960938 45.660156 L 193.996094 45.515625 L 193.988281 45.546875 L 194.023438 45.414062 L 194.058594 45.234375 L 194.078125 45.117188 L 194.085938 45.050781 L 194.101562 44.929688 L 194.117188 44.703125 L 194.121094 44.503906 L 194.117188 44.582031 L 194.132812 44.265625 L 194.132812 44.246094 L 194.152344 43.773438 L 194.152344 43.746094 L 194.171875 43.066406 L 194.171875 43.042969 L 194.1875 42.128906 L 194.1875 42.109375 L 194.191406 40.859375 L 194.191406 40.875 L 194.214844 39.351562 L 194.210938 39.367188 L 194.25 37.667969 L 194.246094 37.753906 L 194.355469 36.066406 L 194.351562 36.128906 L 194.492188 34.71875 L 194.476562 34.832031 L 194.679688 33.5625 C 194.847656 32.496094 194.125 31.5 193.058594 31.332031 C 191.996094 31.160156 191 31.886719 190.828125 32.949219 Z M 190.828125 32.949219 "/>
<path style=" stroke:none;fill-rule:nonzero;fill:rgb(90.588379%,7.058716%,14.117432%);fill-opacity:1;" d="M 187.324219 35.878906 L 187.6875 35.777344 L 187.472656 35.824219 L 187.964844 35.742188 L 187.855469 35.757812 L 188.476562 35.691406 L 188.410156 35.699219 L 189.421875 35.628906 L 189.363281 35.628906 L 190.851562 35.570312 L 190.808594 35.574219 L 192.796875 35.539062 L 192.78125 35.539062 L 195.175781 35.519531 L 195.152344 35.519531 L 197.609375 35.527344 L 197.644531 35.527344 L 199.761719 35.5 L 199.785156 35.5 L 201.316406 35.460938 L 201.394531 35.457031 L 202.234375 35.402344 L 202.289062 35.398438 L 202.648438 35.367188 L 201.347656 35.023438 L 201.4375 35.085938 C 202.320312 35.703125 203.535156 35.484375 204.152344 34.601562 C 204.765625 33.71875 204.550781 32.503906 203.667969 31.890625 C 202.839844 31.3125 201.707031 31.460938 201.058594 32.234375 L 201.042969 32.257812 C 200.824219 32.515625 200.679688 32.824219 200.617188 33.15625 L 200.605469 33.238281 C 200.410156 34.296875 201.109375 35.3125 202.167969 35.507812 C 203.226562 35.699219 204.242188 35 204.4375 33.941406 L 204.453125 33.859375 L 204.027344 34.761719 L 204.046875 34.738281 C 204.738281 33.914062 204.628906 32.6875 203.804688 31.996094 C 203.761719 31.957031 203.714844 31.921875 203.667969 31.890625 L 203.578125 31.828125 C 203.199219 31.5625 202.738281 31.441406 202.28125 31.484375 L 201.921875 31.519531 L 201.980469 31.515625 L 201.140625 31.570312 L 201.21875 31.566406 L 199.6875 31.605469 L 199.710938 31.605469 L 197.59375 31.632812 L 197.605469 31.632812 L 195.148438 31.648438 L 195.144531 31.648438 L 192.746094 31.667969 L 192.722656 31.667969 L 190.730469 31.714844 L 190.699219 31.714844 L 189.210938 31.773438 L 189.117188 31.777344 L 188.105469 31.867188 L 188.074219 31.871094 L 187.453125 31.9375 L 187.136719 31.996094 L 186.65625 32.132812 L 186.644531 32.132812 L 186.285156 32.238281 C 185.277344 32.527344 184.695312 33.574219 184.984375 34.578125 C 185.273438 35.585938 186.320312 36.167969 187.328125 35.878906 Z M 187.324219 35.878906 "/>
<path style=" stroke:none;fill-rule:nonzero;fill:rgb(90.588379%,7.058716%,14.117432%);fill-opacity:1;" d="M 207.464844 35.222656 L 207.496094 35.746094 L 207.492188 35.597656 L 207.484375 36.386719 L 207.503906 36.128906 L 207.332031 37.304688 L 207.355469 37.175781 L 207.007812 38.765625 L 207.027344 38.679688 L 206.554688 40.464844 L 206.5625 40.441406 L 206.09375 42.125 L 206.078125 42.1875 L 205.761719 43.484375 L 205.730469 43.652344 L 205.597656 44.523438 C 205.574219 44.683594 205.570312 44.84375 205.585938 45.003906 L 205.632812 45.484375 C 205.683594 46.03125 205.96875 46.527344 206.40625 46.859375 L 206.710938 47.085938 C 206.960938 47.269531 207.246094 47.390625 207.554688 47.445312 L 208.148438 47.542969 L 208.378906 47.570312 L 209.226562 47.609375 L 209.324219 47.613281 L 210.351562 47.613281 L 210.425781 47.609375 L 211.460938 47.570312 L 211.550781 47.566406 L 212.488281 47.484375 L 212.578125 47.476562 L 213.398438 47.367188 L 213.523438 47.347656 L 214.167969 47.21875 L 214.230469 47.207031 L 214.730469 47.089844 L 214.699219 47.097656 L 215.160156 47 L 215.082031 47.015625 L 215.539062 46.9375 L 215.4375 46.949219 L 215.90625 46.898438 L 215.972656 46.886719 L 216.359375 46.828125 L 216.484375 46.808594 L 216.714844 46.757812 C 216.972656 46.703125 217.214844 46.59375 217.425781 46.445312 L 217.515625 46.378906 C 218.132812 45.945312 218.445312 45.191406 218.3125 44.449219 L 218.296875 44.363281 C 218.238281 44.035156 218.101562 43.730469 217.890625 43.476562 L 217.609375 43.125 L 217.683594 43.226562 L 217.59375 43.097656 L 217.445312 42.910156 L 217.164062 42.605469 C 216.441406 41.808594 215.207031 41.753906 214.414062 42.476562 C 213.617188 43.203125 213.558594 44.433594 214.285156 45.230469 L 214.5625 45.539062 L 214.414062 45.351562 L 214.503906 45.476562 L 214.578125 45.578125 L 214.863281 45.929688 L 214.460938 45.042969 L 214.472656 45.128906 L 215.269531 43.195312 L 215.179688 43.261719 L 215.890625 42.949219 L 215.65625 42.996094 L 215.78125 42.976562 L 215.394531 43.035156 L 215.457031 43.023438 L 214.988281 43.078125 L 214.882812 43.09375 L 214.425781 43.171875 L 214.347656 43.1875 L 213.886719 43.285156 L 213.851562 43.292969 L 213.351562 43.410156 L 213.414062 43.394531 L 212.765625 43.523438 L 212.890625 43.503906 L 212.066406 43.613281 L 212.15625 43.601562 L 211.222656 43.683594 L 211.3125 43.675781 L 210.277344 43.714844 L 210.351562 43.714844 L 209.324219 43.714844 L 209.417969 43.71875 L 208.566406 43.675781 L 208.796875 43.699219 L 208.199219 43.601562 L 209.042969 43.960938 L 208.738281 43.734375 L 209.511719 45.109375 L 209.464844 44.628906 L 209.453125 45.105469 L 209.585938 44.234375 L 209.550781 44.402344 L 209.867188 43.105469 L 209.851562 43.167969 L 210.316406 41.484375 L 210.324219 41.464844 L 210.796875 39.679688 L 210.816406 39.59375 L 211.164062 38.003906 L 211.1875 37.875 L 211.359375 36.695312 L 211.378906 36.4375 L 211.390625 35.648438 L 211.386719 35.496094 L 211.351562 34.972656 C 211.285156 33.898438 210.359375 33.082031 209.285156 33.152344 C 208.210938 33.222656 207.394531 34.148438 207.464844 35.222656 Z M 207.464844 35.222656 "/>
<path style=" stroke:none;fill-rule:nonzero;fill:rgb(90.588379%,7.058716%,14.117432%);fill-opacity:1;" d="M 209.054688 41.765625 L 209.667969 41.480469 L 209.539062 41.535156 L 210.152344 41.300781 L 210 41.355469 L 210.683594 41.15625 L 210.539062 41.191406 L 211.390625 41.015625 L 211.3125 41.03125 L 212.34375 40.863281 L 212.289062 40.871094 L 213.453125 40.714844 L 213.421875 40.71875 L 214.488281 40.59375 L 214.507812 40.589844 L 215.3125 40.484375 L 215.46875 40.457031 L 215.933594 40.359375 C 216.066406 40.332031 216.199219 40.289062 216.324219 40.230469 L 216.542969 40.132812 C 216.878906 39.980469 217.167969 39.734375 217.371094 39.425781 L 217.445312 39.3125 C 217.589844 39.09375 217.6875 38.84375 217.734375 38.585938 L 217.757812 38.449219 C 217.785156 38.300781 217.792969 38.148438 217.785156 37.996094 L 217.773438 37.820312 C 217.757812 37.5625 217.695312 37.3125 217.582031 37.082031 L 217.464844 36.839844 L 217.546875 37.039062 L 217.5 36.90625 C 217.425781 36.691406 217.3125 36.492188 217.164062 36.316406 L 217.050781 36.179688 C 216.367188 35.351562 215.136719 35.234375 214.308594 35.921875 C 213.480469 36.605469 213.363281 37.835938 214.050781 38.664062 L 214.164062 38.800781 L 213.828125 38.210938 L 213.875 38.34375 L 213.957031 38.542969 L 214.074219 38.785156 L 213.882812 38.046875 L 213.894531 38.222656 L 213.917969 37.769531 L 213.894531 37.90625 L 214.183594 37.175781 L 214.113281 37.289062 L 214.941406 36.578125 L 214.726562 36.675781 L 215.121094 36.546875 L 214.652344 36.648438 L 214.808594 36.621094 L 214.007812 36.722656 L 214.03125 36.722656 L 212.960938 36.847656 L 212.933594 36.851562 L 211.769531 37.007812 L 211.71875 37.015625 L 210.683594 37.183594 L 210.605469 37.199219 L 209.753906 37.375 L 209.609375 37.410156 L 208.921875 37.609375 L 208.765625 37.660156 L 208.152344 37.894531 L 208.023438 37.949219 L 207.414062 38.230469 C 206.4375 38.6875 206.015625 39.84375 206.46875 40.820312 C 206.921875 41.796875 208.082031 42.21875 209.054688 41.765625 Z M 209.054688 41.765625 "/>
<path style=" stroke:none;fill-rule:nonzero;fill:rgb(90.588379%,7.058716%,14.117432%);fill-opacity:1;" d="M 211.332031 35.351562 L 212.296875 35.070312 L 212.363281 35.050781 L 213.613281 34.636719 L 213.636719 34.628906 L 215.125 34.113281 L 215.09375 34.125 L 216.632812 33.621094 L 216.574219 33.640625 L 217.957031 33.234375 L 217.765625 33.28125 L 219.121094 33.027344 L 219.039062 33.042969 L 220.410156 32.847656 L 220.398438 32.847656 L 221.625 32.683594 L 221.621094 32.683594 L 222.527344 32.5625 L 222.601562 32.550781 L 223.035156 32.476562 L 223 32.480469 L 223.144531 32.460938 L 222.851562 32.484375 L 222.917969 32.484375 L 222.253906 32.367188 L 222.363281 32.40625 L 222.730469 32.5 L 222.792969 32.511719 L 222.109375 32.265625 L 222.179688 32.304688 C 223.109375 32.851562 224.300781 32.539062 224.847656 31.609375 C 225.390625 30.679688 225.078125 29.488281 224.148438 28.945312 L 224.082031 28.902344 C 223.871094 28.78125 223.636719 28.695312 223.394531 28.660156 L 223.332031 28.648438 L 223.695312 28.742188 L 223.585938 28.703125 C 223.371094 28.625 223.148438 28.585938 222.917969 28.585938 L 222.851562 28.585938 L 222.554688 28.609375 L 222.414062 28.628906 L 222.378906 28.636719 L 221.941406 28.710938 L 222.015625 28.699219 L 221.105469 28.820312 L 221.101562 28.820312 L 219.871094 28.988281 L 219.859375 28.988281 L 218.488281 29.183594 L 218.410156 29.195312 L 217.054688 29.449219 L 216.863281 29.496094 L 215.480469 29.898438 L 215.425781 29.917969 L 213.882812 30.417969 L 213.851562 30.429688 L 212.363281 30.945312 L 212.386719 30.9375 L 211.136719 31.351562 L 211.199219 31.332031 L 210.238281 31.613281 C 209.203125 31.914062 208.613281 32.996094 208.914062 34.03125 C 209.21875 35.0625 210.300781 35.65625 211.332031 35.355469 C 211.332031 35.355469 211.332031 35.351562 211.332031 35.351562 Z M 211.332031 35.351562 "/>
<path style=" stroke:none;fill-rule:nonzero;fill:rgb(90.588379%,7.058716%,14.117432%);fill-opacity:1;" d="M 105.96875 9.816406 L 105.984375 10.296875 L 105.984375 10.339844 L 106.019531 10.964844 L 106.03125 11.085938 L 106.128906 11.945312 L 106.167969 12.152344 L 106.496094 13.589844 L 106.53125 13.714844 L 107.027344 15.382812 L 107.070312 15.5 L 107.6875 17.167969 L 107.71875 17.25 L 108.285156 18.585938 L 108.402344 18.8125 L 108.734375 19.382812 C 108.925781 19.703125 109.203125 19.964844 109.535156 20.132812 L 109.746094 20.238281 C 110.695312 20.71875 111.855469 20.347656 112.351562 19.402344 L 112.53125 19.058594 L 112.632812 18.832031 L 112.917969 18.066406 L 112.929688 18.027344 L 113.320312 16.910156 L 113.339844 16.851562 L 113.828125 15.285156 L 113.855469 15.195312 L 114.304688 13.472656 L 114.324219 13.386719 L 114.660156 11.824219 L 114.671875 11.757812 L 114.890625 10.546875 L 114.90625 10.472656 L 114.976562 9.957031 C 115.125 8.890625 114.382812 7.90625 113.316406 7.757812 C 112.25 7.609375 111.265625 8.351562 111.117188 9.417969 C 111.097656 9.539062 111.09375 9.664062 111.101562 9.785156 L 111.105469 9.921875 L 111.105469 9.878906 L 111.121094 10.523438 L 111.132812 10.671875 L 111.234375 11.660156 L 111.265625 11.851562 L 111.496094 12.984375 L 111.558594 13.214844 L 111.941406 14.347656 L 112 14.496094 L 112.429688 15.492188 L 112.496094 15.632812 L 112.914062 16.421875 L 112.996094 16.558594 L 113.347656 17.109375 L 113.484375 17.292969 L 113.730469 17.589844 C 113.824219 17.707031 113.929688 17.808594 114.046875 17.898438 L 114.214844 18.027344 C 114.664062 18.371094 115.242188 18.503906 115.796875 18.390625 L 115.921875 18.363281 C 116.375 18.269531 116.777344 18.019531 117.0625 17.65625 L 117.257812 17.40625 L 117.375 17.242188 L 117.699219 16.722656 L 117.734375 16.667969 L 118.222656 15.832031 L 118.246094 15.785156 L 118.890625 14.609375 L 118.929688 14.535156 L 119.597656 13.1875 L 119.621094 13.140625 L 120.277344 11.71875 L 120.308594 11.648438 L 120.859375 10.320312 L 120.878906 10.269531 L 121.261719 9.269531 L 121.265625 9.261719 L 121.511719 8.617188 L 121.429688 8.800781 L 121.578125 8.503906 L 119.390625 9.527344 L 119.535156 9.5625 L 119.1875 9.445312 L 119.253906 9.472656 L 118.667969 9.070312 L 118.765625 9.167969 C 119.527344 9.929688 120.761719 9.929688 121.519531 9.167969 C 122.28125 8.40625 122.28125 7.175781 121.519531 6.414062 L 121.421875 6.316406 C 121.253906 6.144531 121.054688 6.007812 120.835938 5.910156 L 120.769531 5.882812 L 120.421875 5.765625 L 120.28125 5.734375 C 119.402344 5.527344 118.496094 5.949219 118.09375 6.757812 L 117.945312 7.054688 L 117.863281 7.238281 L 117.621094 7.882812 L 117.625 7.875 L 117.242188 8.875 L 117.261719 8.824219 L 116.707031 10.152344 L 116.738281 10.082031 L 116.082031 11.503906 L 116.105469 11.457031 L 115.4375 12.808594 L 115.476562 12.734375 L 114.832031 13.910156 L 114.855469 13.863281 L 114.367188 14.703125 L 114.398438 14.648438 L 114.074219 15.167969 L 114.1875 15.003906 L 113.992188 15.253906 L 115.132812 14.546875 L 115.007812 14.574219 L 116.589844 14.9375 L 116.421875 14.808594 L 116.738281 15.113281 L 116.492188 14.816406 L 116.628906 15 L 116.277344 14.453125 L 116.355469 14.589844 L 115.9375 13.804688 L 116.007812 13.945312 L 115.578125 12.949219 L 115.632812 13.097656 L 115.25 11.96875 L 115.316406 12.199219 L 115.082031 11.066406 L 115.113281 11.257812 L 115.007812 10.269531 L 115.019531 10.417969 L 115 9.769531 L 115 9.726562 L 114.992188 9.59375 C 114.941406 8.515625 114.023438 7.6875 112.949219 7.742188 C 112.015625 7.789062 111.246094 8.492188 111.117188 9.417969 L 111.042969 9.929688 L 111.058594 9.855469 L 110.839844 11.066406 L 110.851562 11.003906 L 110.511719 12.570312 L 110.53125 12.488281 L 110.082031 14.210938 L 110.109375 14.121094 L 109.617188 15.6875 L 109.636719 15.628906 L 109.25 16.746094 L 109.265625 16.707031 L 108.976562 17.476562 L 109.078125 17.25 L 108.898438 17.59375 L 111.503906 16.761719 L 111.296875 16.652344 L 112.09375 17.40625 L 111.757812 16.835938 L 111.875 17.0625 L 111.308594 15.726562 L 111.339844 15.8125 L 110.722656 14.144531 L 110.761719 14.265625 L 110.261719 12.597656 L 110.296875 12.71875 L 109.964844 11.28125 L 110.003906 11.492188 L 109.902344 10.632812 L 109.910156 10.75 L 109.878906 10.125 L 109.878906 10.171875 L 109.863281 9.695312 C 109.828125 8.617188 108.929688 7.773438 107.855469 7.808594 C 106.777344 7.84375 105.933594 8.742188 105.96875 9.816406 Z M 105.96875 9.816406 "/>
<path style=" stroke:none;fill-rule:nonzero;fill:rgb(90.588379%,7.058716%,14.117432%);fill-opacity:1;" d="M 119.851562 13.054688 L 120.011719 13.941406 L 119.988281 13.722656 L 120.003906 14.699219 C 120.007812 14.921875 120.058594 15.144531 120.152344 15.351562 L 120.761719 16.667969 L 120.914062 16.933594 L 121.859375 18.257812 C 121.976562 18.417969 122.117188 18.558594 122.28125 18.671875 L 123.6875 19.644531 L 123.992188 19.8125 L 125.511719 20.460938 C 125.6875 20.535156 125.875 20.582031 126.0625 20.597656 L 127.382812 20.703125 L 127.78125 20.691406 L 128.886719 20.53125 C 129.226562 20.480469 129.546875 20.34375 129.816406 20.128906 L 130.636719 19.480469 C 130.761719 19.378906 130.871094 19.269531 130.96875 19.144531 L 131.621094 18.296875 L 131.816406 17.988281 L 132.335938 16.972656 L 132.480469 16.597656 L 132.765625 15.546875 L 132.8125 15.304688 L 132.949219 14.328125 L 132.964844 14.1875 L 133.019531 13.339844 L 133.023438 13.171875 L 133.011719 12.488281 L 132.972656 12.136719 L 132.855469 11.578125 C 132.820312 11.40625 132.765625 11.242188 132.6875 11.085938 L 132.421875 10.566406 C 132.324219 10.375 132.199219 10.203125 132.046875 10.054688 L 131.570312 9.589844 C 131.417969 9.441406 131.246094 9.316406 131.054688 9.226562 L 130.257812 8.839844 L 129.941406 8.722656 L 128.84375 8.414062 L 128.628906 8.363281 L 127.339844 8.15625 L 127.167969 8.132812 L 125.863281 8.039062 L 125.621094 8.035156 L 124.453125 8.097656 L 124.109375 8.144531 L 123.191406 8.359375 L 122.820312 8.488281 L 122.179688 8.785156 C 122.003906 8.863281 121.839844 8.972656 121.699219 9.101562 L 121.324219 9.433594 C 121.03125 9.695312 120.824219 10.039062 120.730469 10.421875 L 120.640625 10.773438 C 120.453125 11.542969 120.746094 12.351562 121.386719 12.816406 L 121.722656 13.0625 C 121.921875 13.210938 122.152344 13.3125 122.394531 13.371094 L 123.222656 13.5625 L 123.378906 13.589844 L 123.851562 13.652344 L 124.101562 13.667969 L 124.78125 13.652344 C 125.613281 13.632812 126.273438 12.941406 126.253906 12.109375 C 126.238281 11.460938 125.8125 10.894531 125.191406 10.703125 L 124.542969 10.503906 L 124.96875 10.703125 L 124.574219 10.441406 L 124.417969 10.347656 L 123.664062 9.949219 L 124.480469 10.816406 L 124.308594 10.433594 L 124.425781 11.710938 L 124.511719 11.355469 L 123.917969 12.339844 L 124.292969 12.007812 L 123.8125 12.320312 L 124.453125 12.027344 L 124.082031 12.152344 L 124.996094 11.941406 L 124.652344 11.988281 L 125.820312 11.929688 L 125.578125 11.925781 L 126.886719 12.023438 L 126.714844 12 L 128 12.210938 L 127.785156 12.164062 L 128.882812 12.472656 L 128.566406 12.351562 L 129.363281 12.738281 L 128.84375 12.375 L 129.320312 12.839844 L 128.945312 12.328125 L 129.210938 12.847656 L 129.039062 12.355469 L 129.152344 12.914062 L 129.113281 12.5625 L 129.125 13.25 L 129.128906 13.082031 L 129.074219 13.929688 L 129.089844 13.792969 L 128.953125 14.769531 L 129.003906 14.527344 L 128.71875 15.578125 L 128.863281 15.203125 L 128.34375 16.222656 L 128.539062 15.914062 L 127.886719 16.761719 L 128.214844 16.425781 L 127.394531 17.074219 L 127.757812 16.847656 L 126.75 17.335938 L 127.667969 17.164062 L 126.351562 17.054688 L 126.796875 17.152344 L 125.242188 16.601562 L 125.648438 16.8125 L 124.246094 15.835938 L 124.535156 16.089844 L 123.4375 14.890625 L 123.714844 15.308594 L 123.105469 13.992188 L 123.050781 13.878906 L 122.578125 13.027344 L 122.730469 13.453125 L 122.570312 12.570312 C 122.4375 11.820312 121.71875 11.320312 120.96875 11.453125 C 120.21875 11.585938 119.71875 12.304688 119.851562 13.054688 Z M 119.851562 13.054688 "/>
<path style=" stroke:none;fill-rule:nonzero;fill:rgb(90.588379%,7.058716%,14.117432%);fill-opacity:1;" d="M 133.632812 9.589844 L 133.632812 10.199219 L 133.664062 9.871094 L 133.519531 10.59375 L 133.484375 10.972656 L 133.5 12.148438 L 133.5 12.117188 L 133.496094 13.464844 L 133.496094 13.574219 L 133.570312 14.851562 L 133.570312 14.835938 L 133.613281 15.769531 L 133.632812 15.964844 L 133.691406 16.351562 C 133.847656 17.367188 134.796875 18.0625 135.8125 17.90625 C 135.859375 17.898438 135.910156 17.890625 135.957031 17.878906 L 136.007812 17.867188 C 136.867188 17.664062 137.484375 16.910156 137.507812 16.027344 L 137.527344 15.460938 L 137.527344 15.375 L 137.511719 14.3125 L 137.507812 14.226562 L 137.421875 12.832031 L 137.421875 12.796875 L 137.300781 11.242188 L 137.300781 11.238281 L 137.183594 9.800781 L 137.191406 9.914062 L 137.164062 8.71875 L 137.152344 8.960938 L 137.25 8.011719 L 137.171875 8.390625 L 137.382812 7.710938 L 137.121094 8.25 L 137.410156 7.839844 L 136.40625 8.578125 L 136.847656 8.4375 L 136.097656 8.523438 L 136.933594 8.589844 L 136.792969 8.574219 L 138.179688 8.789062 L 138.117188 8.777344 L 139.886719 9.105469 L 139.855469 9.101562 L 141.519531 9.4375 L 141.429688 9.417969 L 142.570312 9.703125 L 142.152344 9.546875 L 142.667969 9.8125 L 141.695312 8.632812 L 141.769531 8.894531 L 141.902344 7.460938 L 141.71875 7.824219 L 142.027344 7.378906 L 141.601562 7.835938 L 142.03125 7.488281 L 141.210938 7.976562 L 141.457031 7.855469 L 140.136719 8.40625 L 140.230469 8.371094 L 138.558594 8.96875 L 138.582031 8.960938 L 136.945312 9.53125 L 136.867188 9.558594 L 135.640625 10.042969 L 135.433594 10.136719 L 134.871094 10.4375 C 133.921875 10.945312 133.5625 12.125 134.070312 13.074219 C 134.199219 13.308594 134.371094 13.519531 134.582031 13.683594 L 134.785156 13.84375 C 135.015625 14.027344 135.28125 14.152344 135.566406 14.21875 L 136.550781 14.4375 L 136.539062 14.4375 L 138.097656 14.792969 L 137.96875 14.761719 L 139.835938 15.324219 L 139.691406 15.273438 L 141.578125 16.003906 L 141.417969 15.933594 L 143.019531 16.726562 L 142.921875 16.675781 L 144.253906 17.433594 L 144.21875 17.414062 L 145.230469 18.019531 L 145.210938 18.007812 L 145.839844 18.394531 L 146.054688 18.507812 L 146.390625 18.660156 C 147.300781 19.074219 148.378906 18.730469 148.882812 17.863281 L 149.539062 16.734375 L 149.566406 16.683594 L 149.746094 16.351562 L 149.808594 16.226562 L 150.34375 15.035156 C 150.789062 14.054688 150.351562 12.898438 149.371094 12.457031 C 148.390625 12.015625 147.234375 12.453125 146.792969 13.433594 L 146.253906 14.621094 L 146.316406 14.5 L 146.136719 14.832031 L 146.167969 14.777344 L 145.511719 15.90625 L 148.003906 15.113281 L 147.667969 14.960938 L 147.882812 15.074219 L 147.25 14.6875 L 147.230469 14.671875 L 146.21875 14.066406 L 146.179688 14.046875 L 144.847656 13.289062 L 144.75 13.234375 L 143.148438 12.441406 L 142.988281 12.371094 L 141.101562 11.640625 L 140.960938 11.589844 L 139.09375 11.027344 L 138.96875 10.996094 L 137.410156 10.636719 L 137.402344 10.636719 L 136.421875 10.414062 L 137.203125 10.789062 L 137 10.628906 C 136.15625 9.960938 134.929688 10.101562 134.261719 10.945312 C 133.59375 11.792969 133.738281 13.015625 134.582031 13.683594 C 135.191406 14.164062 136.023438 14.238281 136.707031 13.875 L 137.269531 13.574219 L 137.066406 13.667969 L 138.296875 13.183594 L 138.222656 13.210938 L 139.855469 12.644531 L 139.878906 12.636719 L 141.546875 12.039062 L 141.636719 12.003906 L 142.957031 11.453125 L 143.203125 11.328125 L 144.027344 10.839844 C 144.183594 10.742188 144.328125 10.628906 144.457031 10.492188 L 144.882812 10.035156 C 145.007812 9.902344 145.109375 9.75 145.191406 9.589844 L 145.378906 9.226562 C 145.601562 8.78125 145.648438 8.269531 145.507812 7.792969 L 145.433594 7.53125 C 145.28125 7.023438 144.929688 6.59375 144.460938 6.351562 L 143.941406 6.082031 C 143.808594 6.015625 143.667969 5.960938 143.523438 5.925781 L 142.382812 5.636719 L 142.292969 5.617188 L 140.628906 5.28125 L 140.601562 5.273438 L 138.832031 4.945312 L 138.773438 4.933594 L 137.386719 4.722656 L 137.246094 4.707031 L 136.410156 4.636719 C 136.15625 4.617188 135.898438 4.648438 135.65625 4.726562 L 135.214844 4.867188 C 134.808594 4.996094 134.457031 5.257812 134.210938 5.605469 L 133.925781 6.019531 C 133.8125 6.183594 133.722656 6.363281 133.664062 6.554688 L 133.453125 7.234375 L 133.375 7.609375 L 133.277344 8.5625 L 133.265625 8.804688 L 133.292969 10 L 133.296875 10.113281 L 133.414062 11.550781 L 133.414062 11.546875 L 133.535156 13.097656 L 133.53125 13.066406 L 133.617188 14.460938 L 133.613281 14.371094 L 133.628906 15.433594 L 133.628906 15.347656 L 133.613281 15.910156 C 133.597656 16.40625 133.769531 16.886719 134.097656 17.257812 L 134.132812 17.296875 C 134.8125 18.070312 135.984375 18.144531 136.757812 17.464844 C 137.234375 17.046875 137.464844 16.414062 137.367188 15.785156 L 137.308594 15.398438 L 137.320312 15.484375 L 137.21875 14.554688 L 137.226562 14.644531 L 137.152344 13.367188 L 137.152344 13.328125 L 137.046875 11.984375 L 137.050781 12.097656 L 137.035156 10.921875 L 137 10.59375 L 136.851562 9.871094 L 136.886719 10.199219 L 136.886719 9.589844 C 136.886719 8.691406 136.15625 7.964844 135.257812 7.964844 C 134.359375 7.964844 133.632812 8.691406 133.632812 9.589844 Z M 133.632812 9.589844 "/>
<path style=" stroke:none;fill-rule:nonzero;fill:rgb(90.588379%,7.058716%,14.117432%);fill-opacity:1;" d="M 147.316406 8.660156 L 147.28125 9.292969 L 147.277344 9.375 L 147.269531 10.167969 L 147.269531 10.296875 L 147.324219 11.308594 L 147.335938 11.429688 L 147.46875 12.578125 L 147.480469 12.660156 L 147.65625 13.742188 L 147.664062 13.792969 L 147.828125 14.675781 L 147.832031 14.703125 L 147.949219 15.289062 L 147.96875 15.363281 L 148.042969 15.679688 L 148.164062 16.027344 L 148.230469 16.167969 C 148.445312 16.644531 148.84375 17.011719 149.335938 17.191406 L 149.410156 17.21875 C 149.980469 17.425781 150.609375 17.355469 151.121094 17.03125 L 151.199219 16.984375 L 151.515625 16.734375 L 151.652344 16.597656 L 151.636719 16.613281 L 151.941406 16.324219 L 151.929688 16.332031 L 152.324219 15.960938 L 152.246094 16.03125 L 152.632812 15.703125 L 152.554688 15.769531 L 152.859375 15.539062 L 152.761719 15.609375 L 152.976562 15.464844 L 152.761719 15.585938 L 153.214844 15.363281 L 153.195312 15.375 L 154.0625 14.957031 L 154.050781 14.960938 L 155.359375 14.34375 L 156.863281 13.632812 L 156.882812 13.621094 L 158.328125 12.914062 L 158.34375 12.910156 L 159.5625 12.300781 L 159.554688 12.304688 L 160.417969 11.878906 L 160.375 11.898438 L 160.941406 11.636719 L 160.898438 11.65625 L 161.175781 11.539062 L 160.992188 11.605469 L 161.121094 11.566406 L 161.148438 11.554688 L 161.257812 11.519531 L 161.285156 11.511719 L 161.425781 11.460938 L 161.398438 11.46875 L 161.519531 11.429688 L 161.636719 11.386719 L 161.738281 11.34375 C 162.734375 10.941406 163.214844 9.804688 162.8125 8.808594 C 162.40625 7.808594 161.273438 7.328125 160.273438 7.734375 L 160.171875 7.773438 L 160.289062 7.730469 L 160.164062 7.773438 L 160.136719 7.78125 L 159.992188 7.832031 L 160.019531 7.824219 L 159.90625 7.863281 L 159.933594 7.851562 L 159.804688 7.894531 L 159.621094 7.964844 L 159.347656 8.082031 L 159.304688 8.101562 L 158.742188 8.359375 L 158.699219 8.382812 L 157.832031 8.808594 L 156.605469 9.421875 L 156.617188 9.414062 L 155.171875 10.117188 L 155.195312 10.109375 L 153.691406 10.820312 L 152.382812 11.4375 L 152.375 11.445312 L 151.507812 11.859375 L 151.484375 11.871094 L 151.03125 12.09375 L 150.816406 12.21875 L 150.601562 12.363281 L 150.503906 12.429688 L 150.203125 12.660156 L 150.125 12.722656 L 149.734375 13.050781 L 149.65625 13.121094 L 149.261719 13.492188 L 149.25 13.503906 L 148.949219 13.792969 L 148.929688 13.808594 L 148.792969 13.945312 L 149.109375 13.691406 L 149.03125 13.742188 L 150.742188 13.554688 L 150.667969 13.527344 L 151.773438 14.550781 L 151.710938 14.410156 L 151.832031 14.761719 L 151.753906 14.445312 L 151.773438 14.523438 L 151.65625 13.9375 L 151.660156 13.960938 L 151.496094 13.078125 L 151.503906 13.125 L 151.328125 12.042969 L 151.339844 12.125 L 151.207031 10.980469 L 151.21875 11.101562 L 151.164062 10.089844 L 151.164062 10.21875 L 151.175781 9.425781 L 151.171875 9.503906 L 151.207031 8.867188 C 151.265625 7.792969 150.441406 6.875 149.367188 6.820312 C 148.292969 6.761719 147.375 7.585938 147.316406 8.660156 Z M 147.316406 8.660156 "/>
<path style=" stroke:none;fill-rule:nonzero;fill:rgb(90.588379%,7.058716%,14.117432%);fill-opacity:1;" d="M 155.164062 15.042969 L 155.902344 15.554688 L 155.988281 15.609375 L 157.015625 16.242188 L 157.054688 16.265625 L 158.386719 17.046875 L 158.394531 17.050781 L 159.703125 17.8125 L 159.6875 17.800781 L 160.59375 18.339844 L 160.5625 18.320312 L 161.046875 18.621094 L 161.15625 18.683594 L 161.296875 18.757812 C 161.683594 18.96875 162.132812 19.039062 162.570312 18.957031 L 162.605469 18.949219 C 162.996094 18.878906 163.355469 18.6875 163.632812 18.40625 L 163.710938 18.332031 L 163.84375 18.183594 L 163.980469 18.015625 L 164.027344 17.949219 L 164.320312 17.554688 L 164.296875 17.589844 L 164.457031 17.378906 L 164.46875 17.367188 L 164.683594 17.082031 C 165.335938 16.226562 165.171875 15.003906 164.316406 14.351562 C 163.460938 13.699219 162.238281 13.863281 161.585938 14.71875 L 161.367188 15.003906 L 161.378906 14.992188 L 161.214844 15.203125 L 161.191406 15.234375 L 160.898438 15.628906 L 160.949219 15.566406 L 160.8125 15.730469 L 160.945312 15.582031 L 160.871094 15.660156 L 161.898438 15.117188 L 161.859375 15.125 L 163.132812 15.320312 L 162.992188 15.246094 L 163.101562 15.308594 L 162.613281 15.007812 L 162.585938 14.988281 L 161.679688 14.449219 L 161.660156 14.441406 L 160.347656 13.679688 L 160.355469 13.683594 L 159.023438 12.902344 L 159.0625 12.925781 L 158.035156 12.292969 L 158.121094 12.347656 L 157.386719 11.839844 C 156.5 11.226562 155.285156 11.445312 154.671875 12.332031 C 154.0625 13.214844 154.28125 14.429688 155.164062 15.042969 Z M 155.164062 15.042969 "/>
<path style=" stroke:none;fill-rule:nonzero;fill:rgb(90.588379%,7.058716%,14.117432%);fill-opacity:1;" d="M 166.308594 11.386719 L 166.277344 11.992188 L 166.273438 12.046875 L 166.261719 12.703125 L 166.261719 12.777344 L 166.273438 13.414062 L 166.277344 13.523438 L 166.328125 14.203125 L 166.335938 14.285156 L 166.402344 14.847656 L 166.421875 14.976562 L 166.492188 15.351562 C 166.566406 15.765625 166.777344 16.140625 167.085938 16.425781 L 167.144531 16.480469 C 167.9375 17.210938 169.167969 17.160156 169.898438 16.367188 C 170.148438 16.101562 170.3125 15.765625 170.382812 15.40625 L 170.4375 15.113281 L 170.457031 14.96875 L 170.523438 14.382812 L 170.53125 14.265625 L 170.585938 13.230469 L 170.582031 13.269531 L 170.621094 12.726562 L 170.625 12.636719 L 170.640625 12.003906 C 170.664062 10.925781 169.8125 10.035156 168.738281 10.007812 C 167.660156 9.980469 166.769531 10.832031 166.742188 11.910156 L 166.726562 12.542969 L 166.730469 12.457031 L 166.695312 13 L 166.691406 13.035156 L 166.640625 14.070312 L 166.648438 13.957031 L 166.582031 14.542969 L 166.605469 14.394531 L 166.550781 14.691406 C 166.351562 15.746094 167.050781 16.765625 168.105469 16.964844 C 169.164062 17.160156 170.183594 16.464844 170.382812 15.40625 C 170.503906 14.746094 170.28125 14.070312 169.785156 13.613281 L 169.726562 13.5625 L 170.324219 14.636719 L 170.253906 14.261719 L 170.273438 14.390625 L 170.207031 13.828125 L 170.214844 13.914062 L 170.164062 13.234375 L 170.167969 13.347656 L 170.15625 12.714844 L 170.15625 12.789062 L 170.171875 12.128906 L 170.167969 12.183594 L 170.199219 11.582031 C 170.253906 10.507812 169.425781 9.59375 168.351562 9.539062 C 167.277344 9.484375 166.359375 10.3125 166.308594 11.386719 Z M 166.308594 11.386719 "/>
<path style=" stroke:none;fill-rule:nonzero;fill:rgb(90.588379%,7.058716%,14.117432%);fill-opacity:1;" d="M 169.472656 7.484375 L 169.6875 7.285156 L 169.378906 7.515625 L 169.632812 7.363281 L 169.066406 7.59375 L 169.363281 7.527344 L 168.960938 7.578125 L 169.46875 7.566406 L 169.234375 7.558594 L 170.199219 7.652344 L 170.128906 7.644531 L 171.59375 7.839844 L 171.582031 7.835938 L 173.492188 8.101562 L 173.511719 8.105469 L 175.511719 8.363281 L 175.566406 8.367188 L 177.167969 8.53125 L 177.226562 8.535156 L 178.265625 8.609375 L 178.339844 8.613281 L 178.804688 8.628906 L 178.894531 8.628906 C 179.972656 8.628906 180.84375 7.757812 180.84375 6.679688 C 180.84375 5.605469 179.972656 4.730469 178.894531 4.730469 C 178.769531 4.730469 178.640625 4.742188 178.519531 4.769531 L 177.832031 4.902344 L 177.960938 4.882812 L 177.695312 4.917969 L 177.554688 4.941406 L 176.890625 5.074219 C 175.835938 5.289062 175.152344 6.316406 175.367188 7.371094 C 175.582031 8.425781 176.609375 9.109375 177.664062 8.894531 L 178.332031 8.757812 L 178.191406 8.78125 L 178.457031 8.75 L 178.585938 8.726562 L 179.269531 8.59375 C 180.328125 8.386719 181.015625 7.359375 180.808594 6.304688 C 180.628906 5.390625 179.824219 4.730469 178.894531 4.730469 L 178.867188 4.730469 L 178.933594 4.734375 L 178.464844 4.71875 L 178.539062 4.722656 L 177.5 4.648438 L 177.5625 4.652344 L 175.957031 4.492188 L 176.007812 4.496094 L 174.007812 4.238281 L 174.027344 4.242188 L 172.121094 3.976562 L 172.109375 3.976562 L 170.644531 3.78125 L 170.574219 3.769531 L 169.609375 3.675781 L 169.375 3.667969 L 168.867188 3.679688 L 168.464844 3.734375 L 168.171875 3.800781 C 167.972656 3.847656 167.78125 3.925781 167.609375 4.035156 L 167.355469 4.1875 L 167.046875 4.417969 L 166.832031 4.617188 C 166.039062 5.34375 165.988281 6.578125 166.71875 7.371094 C 167.449219 8.160156 168.679688 8.210938 169.472656 7.484375 Z M 169.472656 7.484375 "/>
<path style=" stroke:none;fill-rule:nonzero;fill:rgb(90.588379%,7.058716%,14.117432%);fill-opacity:1;" d="M 170.15625 13.347656 L 170.597656 13.355469 L 170.558594 13.355469 L 171.472656 13.390625 L 171.488281 13.390625 L 172.847656 13.433594 L 172.859375 13.433594 L 174.617188 13.472656 L 174.632812 13.472656 L 176.207031 13.496094 L 177.269531 13.496094 L 177.253906 13.496094 L 177.769531 13.503906 L 177.628906 13.496094 L 177.808594 13.511719 L 177.929688 13.515625 L 178.015625 13.519531 L 177.742188 13.492188 L 177.816406 13.503906 C 178.1875 13.566406 178.570312 13.515625 178.917969 13.363281 L 178.933594 13.355469 C 179.914062 12.917969 180.359375 11.765625 179.921875 10.78125 C 179.484375 9.800781 178.332031 9.355469 177.347656 9.792969 L 177.335938 9.800781 L 178.4375 9.65625 L 178.363281 9.644531 L 178.089844 9.621094 L 178.007812 9.621094 L 178.125 9.625 L 177.945312 9.609375 L 177.808594 9.605469 L 177.289062 9.597656 L 176.234375 9.597656 L 176.265625 9.601562 L 174.691406 9.574219 L 174.707031 9.578125 L 172.949219 9.535156 L 172.964844 9.535156 L 171.605469 9.496094 L 171.625 9.496094 L 170.714844 9.460938 L 170.675781 9.460938 L 170.230469 9.453125 C 169.15625 9.429688 168.265625 10.289062 168.246094 11.363281 C 168.226562 12.4375 169.082031 13.328125 170.15625 13.347656 Z M 170.15625 13.347656 "/>
<path style=" stroke:none;fill-rule:nonzero;fill:rgb(90.588379%,7.058716%,14.117432%);fill-opacity:1;" d="M 180.855469 7.625 L 180.738281 8.339844 L 180.734375 8.371094 L 180.613281 9.175781 L 180.609375 9.210938 L 180.476562 10.253906 L 180.472656 10.273438 L 180.332031 11.464844 L 180.328125 11.511719 L 180.226562 12.621094 L 180.222656 12.652344 L 180.148438 13.59375 L 180.144531 13.667969 L 180.125 14.230469 L 180.121094 14.339844 L 180.128906 14.636719 L 180.152344 14.925781 L 180.175781 15.0625 C 180.265625 15.578125 180.550781 16.035156 180.976562 16.332031 L 181.046875 16.382812 C 181.316406 16.570312 181.628906 16.691406 181.957031 16.726562 L 182.15625 16.746094 L 182.332031 16.757812 L 182.683594 16.765625 L 182.65625 16.765625 L 183.230469 16.785156 L 183.1875 16.78125 L 184.054688 16.828125 L 184.003906 16.824219 L 185.15625 16.917969 L 185.140625 16.917969 L 186.53125 17.042969 L 186.542969 17.042969 L 187.871094 17.152344 L 187.882812 17.152344 L 188.867188 17.230469 L 188.914062 17.230469 L 189.460938 17.261719 L 189.53125 17.265625 L 189.71875 17.265625 L 189.753906 17.269531 L 189.796875 17.269531 C 190.523438 17.269531 191.191406 16.863281 191.527344 16.214844 L 191.550781 16.164062 L 191.4375 16.359375 L 191.519531 16.238281 L 191.640625 16.027344 L 191.796875 15.722656 L 191.808594 15.695312 L 192.089844 15.117188 L 192.058594 15.179688 L 192.234375 14.847656 L 192.292969 14.71875 L 192.476562 14.308594 C 192.90625 13.320312 192.457031 12.171875 191.472656 11.742188 C 190.488281 11.308594 189.339844 11.757812 188.90625 12.742188 L 188.726562 13.15625 L 188.789062 13.027344 L 188.613281 13.355469 L 188.582031 13.417969 L 188.300781 13.996094 L 188.316406 13.96875 L 188.164062 14.273438 L 188.285156 14.0625 L 188.203125 14.179688 L 188.089844 14.375 L 188.066406 14.421875 L 189.796875 13.371094 L 189.753906 13.371094 L 189.789062 13.371094 L 189.601562 13.367188 L 189.671875 13.371094 L 189.121094 13.339844 L 189.167969 13.34375 L 188.183594 13.265625 L 188.191406 13.265625 L 186.863281 13.15625 L 186.878906 13.160156 L 185.484375 13.035156 L 185.46875 13.035156 L 184.316406 12.941406 L 184.265625 12.9375 L 183.398438 12.890625 L 183.355469 12.886719 L 182.78125 12.871094 L 182.757812 12.867188 L 182.40625 12.863281 L 182.582031 12.875 L 182.378906 12.851562 L 183.289062 13.195312 L 183.21875 13.144531 L 184.019531 14.414062 L 183.996094 14.277344 L 184.023438 14.570312 L 184.019531 14.273438 L 184.019531 14.382812 L 184.039062 13.820312 L 184.035156 13.894531 L 184.109375 12.953125 L 184.105469 12.980469 L 184.210938 11.871094 L 184.203125 11.917969 L 184.34375 10.726562 L 184.339844 10.75 L 184.476562 9.707031 L 184.46875 9.742188 L 184.589844 8.941406 L 184.582031 8.96875 L 184.699219 8.257812 C 184.875 7.195312 184.15625 6.191406 183.09375 6.019531 C 182.03125 5.84375 181.027344 6.566406 180.855469 7.625 Z M 180.855469 7.625 "/>
<path style=" stroke:none;fill-rule:nonzero;fill:rgb(90.588379%,7.058716%,14.117432%);fill-opacity:1;" d="M 192.3125 8.453125 L 192.046875 8.8125 L 191.910156 9.019531 L 191.632812 9.511719 L 191.519531 9.75 L 191.265625 10.390625 L 191.1875 10.625 L 191.003906 11.347656 C 190.96875 11.488281 190.945312 11.628906 190.941406 11.773438 L 190.921875 12.429688 C 190.917969 12.636719 190.945312 12.84375 191.003906 13.042969 L 191.160156 13.578125 C 191.273438 13.953125 191.492188 14.285156 191.796875 14.53125 L 192.269531 14.917969 C 192.46875 15.078125 192.695312 15.199219 192.9375 15.273438 L 193.761719 15.523438 L 194.105469 15.59375 L 195.265625 15.726562 L 195.417969 15.738281 L 196.886719 15.789062 L 197.0625 15.785156 L 198.605469 15.703125 L 198.828125 15.675781 L 200.285156 15.429688 L 200.601562 15.347656 L 201.78125 14.933594 C 201.921875 14.882812 202.058594 14.816406 202.1875 14.734375 L 202.996094 14.21875 C 203.121094 14.136719 203.234375 14.042969 203.339844 13.9375 L 203.878906 13.386719 L 204.125 13.078125 L 204.492188 12.507812 L 204.640625 12.226562 L 204.914062 11.589844 L 205.023438 11.257812 L 205.199219 10.507812 C 205.234375 10.347656 205.25 10.1875 205.246094 10.023438 L 205.226562 9.195312 C 205.222656 9.007812 205.191406 8.820312 205.132812 8.644531 L 204.859375 7.792969 C 204.796875 7.59375 204.703125 7.410156 204.578125 7.242188 L 203.96875 6.40625 C 203.863281 6.257812 203.734375 6.125 203.589844 6.015625 L 202.632812 5.273438 C 202.519531 5.1875 202.398438 5.113281 202.273438 5.054688 L 201.019531 4.460938 L 200.734375 4.351562 L 199.300781 3.933594 L 199.050781 3.878906 L 197.59375 3.652344 L 197.445312 3.636719 L 196.121094 3.53125 L 195.960938 3.527344 L 194.988281 3.53125 L 194.785156 3.542969 L 194.207031 3.605469 C 193.988281 3.628906 193.769531 3.691406 193.570312 3.789062 L 193.34375 3.898438 C 192.609375 4.25 192.175781 5.023438 192.25 5.832031 L 192.261719 5.953125 C 192.300781 6.386719 192.484375 6.789062 192.78125 7.105469 L 192.960938 7.300781 L 192.980469 7.320312 L 193.058594 7.402344 L 193.339844 7.644531 L 193.507812 7.761719 C 194.386719 8.378906 195.601562 8.167969 196.222656 7.289062 C 196.84375 6.410156 196.632812 5.195312 195.75 4.574219 L 195.585938 4.457031 L 195.867188 4.699219 L 195.785156 4.613281 L 195.804688 4.636719 L 195.625 4.441406 L 196.144531 5.597656 L 196.132812 5.472656 L 195.039062 7.40625 L 195.265625 7.296875 L 194.628906 7.480469 L 195.207031 7.417969 L 195.003906 7.429688 L 195.976562 7.425781 L 195.816406 7.417969 L 197.140625 7.523438 L 196.996094 7.503906 L 198.453125 7.730469 L 198.207031 7.675781 L 199.640625 8.09375 L 199.355469 7.984375 L 200.605469 8.578125 L 200.246094 8.355469 L 201.203125 9.097656 L 200.820312 8.703125 L 201.429688 9.539062 L 201.152344 8.988281 L 201.425781 9.839844 L 201.332031 9.285156 L 201.351562 10.113281 L 201.398438 9.628906 L 201.226562 10.378906 L 201.335938 10.046875 L 201.0625 10.683594 L 201.210938 10.402344 L 200.84375 10.972656 L 201.089844 10.664062 L 200.550781 11.214844 L 200.894531 10.933594 L 200.085938 11.453125 L 200.492188 11.253906 L 199.3125 11.667969 L 199.628906 11.585938 L 198.171875 11.835938 L 198.394531 11.8125 L 196.847656 11.894531 L 197.023438 11.894531 L 195.554688 11.84375 L 195.707031 11.851562 L 194.542969 11.722656 L 194.890625 11.792969 L 194.066406 11.542969 L 194.734375 11.898438 L 194.261719 11.511719 L 194.898438 12.46875 L 194.738281 11.933594 L 194.820312 12.546875 L 194.839844 11.890625 L 194.777344 12.316406 L 194.964844 11.59375 L 194.886719 11.828125 L 195.144531 11.1875 L 195.03125 11.421875 L 195.308594 10.929688 L 195.171875 11.136719 L 195.441406 10.777344 C 196.082031 9.914062 195.902344 8.691406 195.039062 8.050781 C 194.175781 7.410156 192.953125 7.589844 192.3125 8.453125 Z M 192.3125 8.453125 "/>
<path style=" stroke:none;fill-rule:nonzero;fill:rgb(90.588379%,7.058716%,14.117432%);fill-opacity:1;" d="M 211.445312 6.996094 L 211.238281 6.808594 L 211.1875 6.761719 L 210.964844 6.574219 L 210.699219 6.386719 L 210.496094 6.265625 L 210.375 6.199219 L 210.1875 6.109375 L 209.824219 5.96875 L 209.683594 5.933594 C 209.164062 5.792969 208.609375 5.875 208.152344 6.15625 L 208.074219 6.207031 C 207.542969 6.535156 207.199219 7.097656 207.152344 7.722656 L 207.140625 7.890625 L 207.136719 8.039062 L 207.136719 8.34375 L 207.140625 8.421875 L 207.160156 8.9375 L 207.171875 9.066406 L 207.253906 9.84375 L 207.273438 9.972656 L 207.453125 10.996094 L 207.496094 11.171875 L 207.828125 12.382812 L 207.867188 12.511719 L 208.289062 13.714844 L 208.308594 13.765625 L 208.703125 14.789062 L 208.699219 14.785156 L 208.976562 15.511719 L 208.957031 15.457031 L 209.101562 15.867188 L 209.1875 16.074219 L 209.261719 16.226562 C 209.730469 17.195312 210.894531 17.601562 211.863281 17.132812 C 212.039062 17.050781 212.199219 16.9375 212.34375 16.804688 L 212.453125 16.703125 C 212.570312 16.59375 212.675781 16.472656 212.761719 16.335938 L 213.046875 15.898438 L 213.605469 15.039062 L 213.582031 15.074219 L 214.410156 13.859375 L 214.375 13.90625 L 215.339844 12.574219 L 215.320312 12.601562 L 216.148438 11.5 L 216.132812 11.523438 L 216.65625 10.84375 L 216.605469 10.90625 L 216.847656 10.621094 L 214.105469 10.863281 L 214.179688 10.921875 L 213.601562 10.097656 L 213.710938 10.40625 L 213.789062 10.589844 L 214.070312 11.160156 L 214.164062 11.335938 L 214.664062 12.132812 L 214.71875 12.222656 L 215.351562 13.125 L 215.367188 13.148438 L 216.007812 14.039062 L 216.027344 14.066406 L 216.585938 14.8125 L 216.570312 14.792969 L 216.953125 15.316406 L 216.980469 15.351562 L 217.210938 15.65625 C 217.308594 15.78125 217.417969 15.890625 217.539062 15.992188 L 217.675781 16.101562 C 218.464844 16.730469 219.601562 16.65625 220.300781 15.929688 L 220.398438 15.824219 L 220.640625 15.519531 L 220.839844 15.203125 L 220.84375 15.195312 L 221.292969 14.480469 L 221.261719 14.527344 L 222.066406 13.316406 L 222.042969 13.347656 L 223.152344 11.75 L 223.125 11.789062 L 224.347656 10.105469 L 224.320312 10.140625 L 225.367188 8.773438 L 225.363281 8.777344 L 226.019531 7.917969 C 226.199219 7.6875 226.324219 7.414062 226.382812 7.125 L 226.46875 6.710938 C 226.671875 5.714844 226.03125 4.746094 225.039062 4.539062 C 224.878906 4.507812 224.714844 4.496094 224.554688 4.503906 L 223.015625 4.601562 L 222.714844 4.644531 L 222.234375 4.761719 L 222.390625 4.734375 L 220.8125 4.953125 C 219.988281 5.070312 219.414062 5.835938 219.53125 6.660156 C 219.636719 7.40625 220.273438 7.960938 221.027344 7.957031 L 222.621094 7.953125 L 222.296875 7.921875 L 222.78125 8.019531 L 222.984375 8.050781 L 224.519531 8.171875 C 225.53125 8.253906 226.417969 7.5 226.5 6.488281 C 226.582031 5.476562 225.828125 4.589844 224.816406 4.507812 C 224.230469 4.460938 223.65625 4.695312 223.273438 5.140625 L 223 5.460938 L 222.929688 5.546875 L 222.269531 6.402344 L 222.265625 6.410156 L 221.222656 7.777344 L 221.195312 7.8125 L 219.972656 9.496094 L 219.945312 9.53125 L 218.839844 11.128906 L 218.820312 11.160156 L 217.984375 12.414062 L 217.539062 13.128906 L 217.542969 13.121094 L 217.347656 13.433594 L 217.585938 13.128906 L 217.488281 13.230469 L 220.113281 13.058594 L 219.976562 12.949219 L 220.304688 13.285156 L 220.074219 12.984375 L 220.101562 13.019531 L 219.722656 12.496094 L 219.707031 12.476562 L 219.148438 11.730469 L 219.171875 11.761719 L 218.53125 10.875 L 218.546875 10.898438 L 217.917969 9.992188 L 217.972656 10.078125 L 217.476562 9.277344 L 217.574219 9.449219 L 217.292969 8.878906 L 217.371094 9.0625 L 217.257812 8.757812 C 217.140625 8.4375 216.941406 8.152344 216.679688 7.933594 L 216.605469 7.871094 C 215.78125 7.183594 214.554688 7.289062 213.863281 8.109375 L 213.625 8.394531 L 213.574219 8.457031 L 213.046875 9.136719 L 213.03125 9.160156 L 212.207031 10.261719 L 212.1875 10.285156 L 211.21875 11.621094 L 211.1875 11.664062 L 210.359375 12.878906 L 210.335938 12.914062 L 209.777344 13.777344 L 209.492188 14.214844 L 209.796875 13.851562 L 209.6875 13.953125 C 208.898438 14.6875 208.855469 15.921875 209.589844 16.707031 C 210.324219 17.496094 211.554688 17.539062 212.34375 16.804688 C 212.96875 16.222656 213.140625 15.300781 212.769531 14.53125 L 212.695312 14.378906 L 212.78125 14.585938 L 212.640625 14.175781 L 212.621094 14.121094 L 212.34375 13.394531 L 212.339844 13.390625 L 211.949219 12.371094 L 211.96875 12.421875 L 211.546875 11.21875 L 211.585938 11.347656 L 211.253906 10.136719 L 211.292969 10.316406 L 211.113281 9.292969 L 211.128906 9.421875 L 211.046875 8.644531 L 211.054688 8.773438 L 211.03125 8.253906 L 211.035156 8.332031 L 211.035156 8.027344 L 211.027344 8.175781 L 211.039062 8.007812 L 210.121094 9.523438 L 210.203125 9.472656 L 208.671875 9.695312 L 208.816406 9.734375 L 208.453125 9.597656 L 208.636719 9.691406 L 208.515625 9.625 L 208.71875 9.742188 L 208.453125 9.554688 L 208.675781 9.742188 L 208.625 9.699219 L 208.832031 9.886719 C 209.628906 10.609375 210.863281 10.546875 211.585938 9.746094 C 212.308594 8.949219 212.246094 7.71875 211.445312 6.996094 Z M 211.445312 6.996094 "/>
<path style=" stroke:none;fill-rule:nonzero;fill:rgb(90.588379%,7.058716%,14.117432%);fill-opacity:1;" d="M 166.347656 7.128906 L 166.265625 7.480469 L 166.277344 7.441406 L 166.179688 7.816406 L 166.152344 7.953125 L 166.074219 8.378906 L 166.0625 8.445312 L 165.992188 8.929688 L 165.980469 9.007812 L 165.925781 9.515625 L 165.917969 9.640625 L 165.898438 10.113281 L 165.898438 10.558594 L 165.902344 10.4375 L 165.886719 10.683594 L 165.882812 10.75 L 165.878906 10.886719 L 165.984375 10.304688 L 165.96875 10.351562 C 165.621094 11.367188 166.160156 12.476562 167.175781 12.828125 C 168.195312 13.179688 169.304688 12.640625 169.65625 11.621094 L 169.667969 11.578125 C 169.734375 11.390625 169.769531 11.195312 169.777344 10.996094 L 169.78125 10.859375 L 169.777344 10.925781 L 169.792969 10.679688 L 169.796875 10.558594 L 169.796875 10.191406 L 169.792969 10.265625 L 169.8125 9.796875 L 169.804688 9.925781 L 169.855469 9.417969 L 169.847656 9.496094 L 169.917969 9.011719 L 169.90625 9.074219 L 169.984375 8.648438 L 169.957031 8.78125 L 170.050781 8.40625 L 170.0625 8.367188 L 170.144531 8.015625 C 170.386719 6.96875 169.738281 5.921875 168.691406 5.675781 C 167.640625 5.429688 166.59375 6.082031 166.347656 7.128906 Z M 166.347656 7.128906 "/>
<path style=" stroke:none;fill-rule:nonzero;fill:rgb(90.588379%,7.058716%,14.117432%);fill-opacity:1;" d="M 108.816406 42.414062 L 110.789062 42.421875 L 110.761719 42.421875 L 112.839844 42.457031 L 112.785156 42.457031 L 114.480469 42.535156 L 114.5 42.535156 L 116.242188 42.597656 L 116.273438 42.597656 L 117.796875 42.632812 L 117.855469 42.632812 L 118.878906 42.621094 L 118.929688 42.621094 L 119.488281 42.601562 L 119.5625 42.597656 L 119.816406 42.578125 C 119.972656 42.570312 120.128906 42.539062 120.277344 42.488281 L 120.351562 42.464844 C 121.019531 42.25 121.519531 41.6875 121.65625 40.996094 L 121.683594 40.878906 L 121.613281 41.136719 L 121.625 41.097656 C 121.695312 40.890625 121.734375 40.675781 121.734375 40.457031 L 121.734375 40.339844 C 121.734375 39.265625 120.859375 38.394531 119.785156 38.394531 C 118.707031 38.394531 117.835938 39.265625 117.835938 40.339844 L 117.835938 40.457031 L 117.945312 39.816406 L 117.929688 39.855469 L 117.859375 40.109375 L 117.835938 40.226562 L 119.144531 38.757812 L 119.070312 38.785156 L 119.53125 38.691406 L 119.277344 38.710938 L 119.355469 38.707031 L 118.796875 38.726562 L 118.847656 38.726562 L 117.820312 38.734375 L 117.878906 38.734375 L 116.355469 38.703125 L 116.386719 38.703125 L 114.640625 38.640625 L 114.660156 38.640625 L 112.964844 38.5625 L 112.90625 38.558594 L 110.828125 38.523438 L 110.800781 38.523438 L 108.828125 38.519531 C 107.753906 38.515625 106.878906 39.382812 106.875 40.460938 C 106.871094 41.539062 107.742188 42.414062 108.816406 42.414062 Z M 108.816406 42.414062 "/>
<path style=" stroke:none;fill-rule:nonzero;fill:rgb(90.588379%,7.058716%,14.117432%);fill-opacity:1;" d="M 113.476562 34.878906 L 113.382812 35.539062 L 113.375 35.605469 L 113.296875 36.320312 L 113.285156 36.472656 L 113.265625 37.273438 L 113.261719 37.308594 L 113.253906 38.230469 L 113.253906 38.300781 L 113.277344 39.320312 L 113.277344 39.367188 L 113.332031 40.417969 L 113.335938 40.480469 L 113.414062 41.445312 L 113.417969 41.488281 L 113.5 42.28125 L 113.5 42.296875 L 113.570312 42.917969 L 113.574219 42.933594 L 113.628906 43.402344 L 113.625 43.367188 L 113.664062 43.742188 L 113.671875 43.800781 L 113.710938 44.117188 L 113.714844 44.121094 L 113.742188 44.347656 L 113.738281 44.3125 L 113.757812 44.457031 L 113.765625 44.515625 L 113.777344 44.605469 L 113.757812 44.320312 L 113.757812 44.394531 L 113.773438 44.136719 L 113.761719 44.226562 L 113.769531 44.164062 L 113.753906 44.273438 L 113.757812 44.238281 L 113.726562 44.425781 L 113.730469 44.386719 L 113.683594 44.625 L 113.671875 44.695312 L 113.628906 44.9375 L 113.625 44.96875 L 113.59375 45.179688 L 113.585938 45.226562 L 113.570312 45.34375 L 113.554688 45.59375 L 113.554688 45.808594 L 113.558594 45.914062 L 113.5625 46.007812 L 113.570312 46.101562 L 113.578125 46.160156 C 113.6875 47.230469 114.648438 48.007812 115.71875 47.898438 C 116.789062 47.785156 117.566406 46.828125 117.453125 45.757812 L 117.449219 45.695312 L 117.453125 45.792969 L 117.449219 45.699219 L 117.453125 45.808594 L 117.453125 45.59375 L 117.4375 45.839844 L 117.453125 45.722656 L 117.445312 45.765625 L 117.476562 45.554688 L 117.472656 45.582031 L 117.515625 45.335938 L 117.5 45.40625 L 117.550781 45.167969 L 117.558594 45.132812 L 117.59375 44.945312 L 117.597656 44.910156 L 117.617188 44.800781 L 117.625 44.742188 L 117.636719 44.652344 L 117.652344 44.394531 L 117.652344 44.320312 L 117.632812 44.039062 L 117.621094 43.945312 L 117.628906 44.003906 L 117.609375 43.859375 L 117.605469 43.824219 L 117.574219 43.597656 L 117.578125 43.605469 L 117.535156 43.285156 L 117.539062 43.34375 L 117.503906 42.96875 L 117.5 42.933594 L 117.441406 42.464844 L 117.445312 42.484375 L 117.375 41.863281 L 117.375 41.878906 L 117.292969 41.085938 L 117.296875 41.128906 L 117.21875 40.164062 L 117.222656 40.226562 L 117.171875 39.175781 L 117.175781 39.226562 L 117.148438 38.207031 L 117.148438 38.273438 L 117.160156 37.351562 L 117.160156 37.386719 L 117.183594 36.582031 L 117.171875 36.734375 L 117.25 36.019531 L 117.238281 36.089844 L 117.335938 35.429688 C 117.488281 34.363281 116.746094 33.378906 115.679688 33.226562 C 114.613281 33.074219 113.628906 33.8125 113.476562 34.878906 Z M 113.476562 34.878906 "/>
</g>
</svg>
